<svg width="60" height="60" viewBox="0 0 60 60" fill="none" xmlns="http://www.w3.org/2000/svg">
<path d="M53.5553 35.5H58.5593C59.0597 35.5 59.3099 35.25 59.3099 34.75V25.75C59.3099 25 58.8095 24.5 58.0589 24.5H53.5553C53.0549 24.5 52.8047 24.75 52.8047 25.25V34.75C52.8047 35.25 53.0549 35.5 53.5553 35.5Z" fill="url(#paint0_linear_2297_7496)"/>
<path d="M40.795 43.75H45.0484C45.5488 43.75 46.0492 43.25 46.0492 42.75V17.5C46.0492 16.75 45.5488 16.25 44.7982 16.25H40.795C40.2946 16.25 39.7942 16.75 39.7942 17.25V42.5C39.7942 43.25 40.2946 43.75 40.795 43.75Z" fill="url(#paint1_linear_2297_7496)"/>
<path d="M28.5351 59.5H31.7877C32.7885 59.5 33.5391 58.75 33.5391 57.75V1.75C33.5391 1 33.0387 0.5 32.2881 0.5H28.7853C27.7845 0.5 27.0338 1.25 27.0338 2.25V58C26.7836 58.75 27.5342 59.5 28.5351 59.5Z" fill="url(#paint2_linear_2297_7496)"/>
<path d="M15.0242 47H19.0274C19.778 47 20.2784 46.5 20.2784 45.75V14.25C20.2784 13.5 19.778 13 19.0274 13H15.0242C14.2736 13 13.7732 13.5 13.7732 14.25V46C13.7732 46.5 14.2736 47 15.0242 47Z" fill="url(#paint3_linear_2297_7496)"/>
<path d="M1.5133 37H6.51734C7.01774 37 7.26794 36.75 7.26794 36.25V24.5C7.26794 23.75 6.76754 23.25 6.01693 23.25H1.5133C1.0129 23.25 0.762695 23.5 0.762695 24V36.25C0.762695 36.5 1.0129 37 1.5133 37Z" fill="url(#paint4_linear_2297_7496)"/>
<defs>
<linearGradient id="paint0_linear_2297_7496" x1="54.8241" y1="26.1479" x2="54.8822" y2="34.0987" gradientUnits="userSpaceOnUse">
<stop stop-color="#D9AFFF"/>
<stop offset="1" stop-color="white"/>
</linearGradient>
<linearGradient id="paint1_linear_2297_7496" x1="41.7359" y1="20.3698" x2="42.1134" y2="40.2405" gradientUnits="userSpaceOnUse">
<stop stop-color="#D9AFFF"/>
<stop offset="1" stop-color="white"/>
</linearGradient>
<linearGradient id="paint2_linear_2297_7496" x1="29.0198" y1="9.33876" x2="30.6763" y2="51.9215" gradientUnits="userSpaceOnUse">
<stop stop-color="#D9AFFF"/>
<stop offset="1" stop-color="white"/>
</linearGradient>
<linearGradient id="paint3_linear_2297_7496" x1="15.7926" y1="18.0935" x2="16.3473" y2="42.6574" gradientUnits="userSpaceOnUse">
<stop stop-color="#D9AFFF"/>
<stop offset="1" stop-color="white"/>
</linearGradient>
<linearGradient id="paint4_linear_2297_7496" x1="2.78206" y1="25.3099" x2="2.87283" y2="35.248" gradientUnits="userSpaceOnUse">
<stop stop-color="#D9AFFF"/>
<stop offset="1" stop-color="white"/>
</linearGradient>
</defs>
</svg>
