<svg width="59" height="48" viewBox="0 0 59 48" fill="none" xmlns="http://www.w3.org/2000/svg">
<path d="M50.3639 28H55.7059C56.2401 28 56.5072 27.8 56.5072 27.4V20.2C56.5072 19.6 55.973 19.2 55.1717 19.2H50.3639C49.8298 19.2 49.5627 19.4 49.5627 19.8V27.4C49.5627 27.8 49.8298 28 50.3639 28Z" fill="url(#paint0_linear_306_18)"/>
<path d="M38.9536 34.6H43.4943C44.0285 34.6 44.5627 34.2 44.5627 33.8V13.6C44.5627 13 44.0285 12.6 43.2272 12.6H38.9536C38.4195 12.6 37.8853 13 37.8853 13.4V33.6C37.8853 34.2 38.4195 34.6 38.9536 34.6Z" fill="url(#paint1_linear_306_18)"/>
<path d="M27.5433 47.2H31.0156C32.084 47.2 32.8853 46.6 32.8853 45.8V1C32.8853 0.4 32.3511 0 31.5498 0H27.8104C26.742 0 25.9408 0.6 25.9408 1.4V46C25.6737 46.6 26.475 47.2 27.5433 47.2Z" fill="url(#paint2_linear_306_18)"/>
<path d="M15.28 37.2H19.5535C20.3548 37.2 20.889 36.8 20.889 36.2V11C20.889 10.4 20.3548 10 19.5535 10H15.28C14.4787 10 13.9445 10.4 13.9445 11V36.4C13.9445 36.8 14.4787 37.2 15.28 37.2Z" fill="url(#paint3_linear_306_18)"/>
<path d="M2.80129 29.2H8.14321C8.6774 29.2 8.94449 29 8.94449 28.6V19.2C8.94449 18.6 8.4103 18.2 7.60901 18.2H2.80129C2.2671 18.2 2 18.4 2 18.8V28.6C2 28.8 2.2671 29.2 2.80129 29.2Z" fill="url(#paint4_linear_306_18)"/>
<defs>
<linearGradient id="paint0_linear_306_18" x1="51.7184" y1="20.5183" x2="51.7532" y2="26.8791" gradientUnits="userSpaceOnUse">
<stop stop-color="#D9AFFF"/>
<stop offset="1" stop-color="white"/>
</linearGradient>
<linearGradient id="paint1_linear_306_18" x1="39.9581" y1="15.8958" x2="40.1844" y2="31.7949" gradientUnits="userSpaceOnUse">
<stop stop-color="#D9AFFF"/>
<stop offset="1" stop-color="white"/>
</linearGradient>
<linearGradient id="paint2_linear_306_18" x1="28.0608" y1="7.07101" x2="29.0545" y2="41.1598" gradientUnits="userSpaceOnUse">
<stop stop-color="#D9AFFF"/>
<stop offset="1" stop-color="white"/>
</linearGradient>
<linearGradient id="paint3_linear_306_18" x1="16.1002" y1="14.0748" x2="16.4329" y2="33.7303" gradientUnits="userSpaceOnUse">
<stop stop-color="#D9AFFF"/>
<stop offset="1" stop-color="white"/>
</linearGradient>
<linearGradient id="paint4_linear_306_18" x1="4.15572" y1="19.8479" x2="4.21014" y2="27.7987" gradientUnits="userSpaceOnUse">
<stop stop-color="#D9AFFF"/>
<stop offset="1" stop-color="white"/>
</linearGradient>
</defs>
</svg>
