<svg width="59" height="59" viewBox="0 0 59 59" fill="none" xmlns="http://www.w3.org/2000/svg">
<path d="M5.75468 24H0.750641C0.250238 24 3.30917e-05 24.25 3.30917e-05 24.75V33.75C3.30917e-05 34.5 0.500437 35 1.25104 35H5.75468C6.25508 35 6.50528 34.75 6.50528 34.25V24.75C6.50528 24.25 6.25508 24 5.75468 24Z" fill="url(#paint0_linear_278_16)"/>
<path d="M18.515 15.75H14.2615C13.7611 15.75 13.2607 16.25 13.2607 16.75V42C13.2607 42.75 13.7611 43.25 14.5117 43.25H18.515C19.0154 43.25 19.5158 42.75 19.5158 42.25V17C19.5158 16.25 19.0154 15.75 18.515 15.75Z" fill="url(#paint1_linear_278_16)"/>
<path d="M30.7749 9.44138e-06H27.5222C26.5214 9.44138e-06 25.7708 0.750002 25.7708 1.75V57.75C25.7708 58.5 26.2712 59 27.0218 59H30.5246C31.5255 59 32.2761 58.25 32.2761 57.25V1.50001C32.5263 0.750006 31.7757 9.44138e-06 30.7749 9.44138e-06Z" fill="url(#paint2_linear_278_16)"/>
<path d="M44.2857 12.5H40.2825C39.5319 12.5 39.0315 13 39.0315 13.75V45.25C39.0315 46 39.5319 46.5 40.2825 46.5H44.2857C45.0363 46.5 45.5367 46 45.5367 45.25V13.5C45.5367 13 45.0363 12.5 44.2857 12.5Z" fill="url(#paint3_linear_278_16)"/>
<path d="M57.7966 22.5H52.7926C52.2922 22.5 52.042 22.75 52.042 23.25V35C52.042 35.75 52.5424 36.25 53.293 36.25H57.7966C58.297 36.25 58.5472 36 58.5472 35.5V23.25C58.5472 23 58.297 22.5 57.7966 22.5Z" fill="url(#paint4_linear_278_16)"/>
<defs>
<linearGradient id="paint0_linear_278_16" x1="4.48591" y1="33.3521" x2="4.42782" y2="25.4013" gradientUnits="userSpaceOnUse">
<stop stop-color="#D9AFFF"/>
<stop offset="1" stop-color="white"/>
</linearGradient>
<linearGradient id="paint1_linear_278_16" x1="17.5741" y1="39.1302" x2="17.1966" y2="19.2595" gradientUnits="userSpaceOnUse">
<stop stop-color="#D9AFFF"/>
<stop offset="1" stop-color="white"/>
</linearGradient>
<linearGradient id="paint2_linear_278_16" x1="30.2901" y1="50.1612" x2="28.6336" y2="7.57846" gradientUnits="userSpaceOnUse">
<stop stop-color="#D9AFFF"/>
<stop offset="1" stop-color="white"/>
</linearGradient>
<linearGradient id="paint3_linear_278_16" x1="43.5174" y1="41.4065" x2="42.9626" y2="16.8426" gradientUnits="userSpaceOnUse">
<stop stop-color="#D9AFFF"/>
<stop offset="1" stop-color="white"/>
</linearGradient>
<linearGradient id="paint4_linear_278_16" x1="56.5279" y1="34.1901" x2="56.4371" y2="24.252" gradientUnits="userSpaceOnUse">
<stop stop-color="#D9AFFF"/>
<stop offset="1" stop-color="white"/>
</linearGradient>
</defs>
</svg>
