<svg width="59" height="59" viewBox="0 0 59 59" fill="none" xmlns="http://www.w3.org/2000/svg">
<path d="M5.75468 35H0.750641C0.250238 35 3.30917e-05 34.75 3.30917e-05 34.25V25.25C3.30917e-05 24.5 0.500437 24 1.25104 24H5.75468C6.25508 24 6.50528 24.25 6.50528 24.75V34.25C6.50528 34.75 6.25508 35 5.75468 35Z" fill="url(#paint0_linear_278_9)"/>
<path d="M18.515 43.25H14.2615C13.7611 43.25 13.2607 42.75 13.2607 42.25V17C13.2607 16.25 13.7611 15.75 14.5117 15.75H18.515C19.0154 15.75 19.5158 16.25 19.5158 16.75V42C19.5158 42.75 19.0154 43.25 18.515 43.25Z" fill="url(#paint1_linear_278_9)"/>
<path d="M30.7749 59H27.5222C26.5214 59 25.7708 58.25 25.7708 57.25V1.25C25.7708 0.5 26.2712 0 27.0218 0H30.5246C31.5255 0 32.2761 0.749999 32.2761 1.75V57.5C32.5263 58.25 31.7757 59 30.7749 59Z" fill="url(#paint2_linear_278_9)"/>
<path d="M44.2857 46.5H40.2825C39.5319 46.5 39.0315 46 39.0315 45.25V13.75C39.0315 13 39.5319 12.5 40.2825 12.5H44.2857C45.0363 12.5 45.5367 13 45.5367 13.75V45.5C45.5367 46 45.0363 46.5 44.2857 46.5Z" fill="url(#paint3_linear_278_9)"/>
<path d="M57.7966 36.5H52.7926C52.2922 36.5 52.042 36.25 52.042 35.75V24C52.042 23.25 52.5424 22.75 53.293 22.75H57.7966C58.297 22.75 58.5472 23 58.5472 23.5V35.75C58.5472 36 58.297 36.5 57.7966 36.5Z" fill="url(#paint4_linear_278_9)"/>
<defs>
<linearGradient id="paint0_linear_278_9" x1="4.48591" y1="25.6479" x2="4.42782" y2="33.5987" gradientUnits="userSpaceOnUse">
<stop stop-color="#D9AFFF"/>
<stop offset="1" stop-color="white"/>
</linearGradient>
<linearGradient id="paint1_linear_278_9" x1="17.5741" y1="19.8698" x2="17.1966" y2="39.7405" gradientUnits="userSpaceOnUse">
<stop stop-color="#D9AFFF"/>
<stop offset="1" stop-color="white"/>
</linearGradient>
<linearGradient id="paint2_linear_278_9" x1="30.2901" y1="8.83876" x2="28.6336" y2="51.4215" gradientUnits="userSpaceOnUse">
<stop stop-color="#D9AFFF"/>
<stop offset="1" stop-color="white"/>
</linearGradient>
<linearGradient id="paint3_linear_278_9" x1="43.5174" y1="17.5935" x2="42.9626" y2="42.1574" gradientUnits="userSpaceOnUse">
<stop stop-color="#D9AFFF"/>
<stop offset="1" stop-color="white"/>
</linearGradient>
<linearGradient id="paint4_linear_278_9" x1="56.5279" y1="24.8099" x2="56.4371" y2="34.748" gradientUnits="userSpaceOnUse">
<stop stop-color="#D9AFFF"/>
<stop offset="1" stop-color="white"/>
</linearGradient>
</defs>
</svg>
