<svg width="66" height="59" viewBox="0 0 66 59" fill="none" xmlns="http://www.w3.org/2000/svg">
<g clip-path="url(#clip0_283_53)">
<path d="M9.25599 23.5H4.25199C3.75159 23.5 3.50139 23.75 3.50139 24.25V33.25C3.50139 34 4.00179 34.5 4.75239 34.5H9.25599C9.75639 34.5 10.0066 34.25 10.0066 33.75V24.25C10.0066 23.75 9.75639 23.5 9.25599 23.5Z" fill="url(#paint0_linear_283_53)"/>
<path d="M22.0163 15.25H17.7629C17.2625 15.25 16.7621 15.75 16.7621 16.25V41.5C16.7621 42.25 17.2625 42.75 18.0131 42.75H22.0163C22.5167 42.75 23.0171 42.25 23.0171 41.75V16.5C23.0171 15.75 22.5167 15.25 22.0163 15.25Z" fill="url(#paint1_linear_283_53)"/>
<path d="M34.2762 -0.5H31.0236C30.0228 -0.5 29.2722 0.25 29.2722 1.25V57.25C29.2722 58 29.7726 58.5 30.5232 58.5H34.026C35.0268 58.5 35.7775 57.75 35.7775 56.75V1C36.0277 0.25 35.2771 -0.5 34.2762 -0.5Z" fill="url(#paint2_linear_283_53)"/>
<path d="M47.7871 12H43.7839C43.0333 12 42.5329 12.5 42.5329 13.25V44.75C42.5329 45.5 43.0333 46 43.7839 46H47.7871C48.5377 46 49.0381 45.5 49.0381 44.75V13C49.0381 12.5 48.5377 12 47.7871 12Z" fill="url(#paint3_linear_283_53)"/>
<path d="M61.298 22H56.2939C55.7935 22 55.5433 22.25 55.5433 22.75V34.5C55.5433 35.25 56.0437 35.75 56.7943 35.75H61.298C61.7984 35.75 62.0486 35.5 62.0486 35V22.75C62.0486 22.5 61.7984 22 61.298 22Z" fill="url(#paint4_linear_283_53)"/>
</g>
<defs>
<linearGradient id="paint0_linear_283_53" x1="7.98719" y1="32.8521" x2="7.92909" y2="24.9013" gradientUnits="userSpaceOnUse">
<stop stop-color="#D9AFFF"/>
<stop offset="1" stop-color="white"/>
</linearGradient>
<linearGradient id="paint1_linear_283_53" x1="21.0754" y1="38.6302" x2="20.6979" y2="18.7595" gradientUnits="userSpaceOnUse">
<stop stop-color="#D9AFFF"/>
<stop offset="1" stop-color="white"/>
</linearGradient>
<linearGradient id="paint2_linear_283_53" x1="33.7915" y1="49.6612" x2="32.135" y2="7.0785" gradientUnits="userSpaceOnUse">
<stop stop-color="#D9AFFF"/>
<stop offset="1" stop-color="white"/>
</linearGradient>
<linearGradient id="paint3_linear_283_53" x1="47.0187" y1="40.9065" x2="46.464" y2="16.3426" gradientUnits="userSpaceOnUse">
<stop stop-color="#D9AFFF"/>
<stop offset="1" stop-color="white"/>
</linearGradient>
<linearGradient id="paint4_linear_283_53" x1="60.0292" y1="33.6901" x2="59.9384" y2="23.752" gradientUnits="userSpaceOnUse">
<stop stop-color="#D9AFFF"/>
<stop offset="1" stop-color="white"/>
</linearGradient>
<clipPath id="clip0_283_53">
<rect width="65.55" height="59" fill="white" transform="matrix(-1 0 0 -1 65.55 59)"/>
</clipPath>
</defs>
</svg>
