<svg width="24" height="24" viewBox="0 0 24 24" fill="none" xmlns="http://www.w3.org/2000/svg">
<g clip-path="url(#clip0_2297_11898)">
<path d="M18.8202 12.6955C18.8202 12.8026 18.6595 15.9631 22.1414 17.6237C21.4986 19.6057 19.2487 23.9982 16.6239 23.9982C15.124 23.9982 14.267 23.034 12.5528 23.034C10.7851 23.034 9.82086 23.9982 8.48167 23.9982C5.91043 24.1054 3.44632 19.2843 2.74995 17.3023C2.21427 15.8024 2 14.3561 2 12.9633C2 8.19583 5.16048 5.89243 8.16026 5.83886C9.60659 5.83886 11.4279 6.85664 12.2314 6.85664C12.9813 6.85664 15.0705 5.62459 16.9989 5.78529C18.9809 5.94599 20.4808 6.69594 21.4986 8.14226C19.7308 9.26718 18.8202 10.7135 18.8202 12.6955ZM15.8204 3.91043C14.7491 5.14248 13.4634 5.83886 12.0707 5.73172C11.9636 4.2854 12.4992 2.94621 13.4634 1.87486C14.3205 0.910648 15.8204 0.107135 17.106 0C17.106 0.589243 17.2667 2.19627 15.8204 3.91043Z" fill="#131420"/>
</g>
<defs>
<clipPath id="clip0_2297_11898">
<rect width="24" height="24" fill="white"/>
</clipPath>
</defs>
</svg>
