<svg width="22" height="22" viewBox="0 0 22 22" fill="none" xmlns="http://www.w3.org/2000/svg">
<path d="M19.6402 12.6457H12.6457V19.6402C12.6457 20.5487 11.9086 21.2858 11.0001 21.2858C10.0915 21.2858 9.35444 20.5487 9.35444 19.6402V12.6457H2.35999C1.45144 12.6457 0.714355 11.9086 0.714355 11.0001C0.714355 10.0915 1.45144 9.35444 2.35999 9.35444H9.35444V2.35999C9.35444 1.45144 10.0915 0.714355 11.0001 0.714355C11.9086 0.714355 12.6457 1.45144 12.6457 2.35999V9.35444H19.6402C20.5487 9.35444 21.2858 10.0915 21.2858 11.0001C21.2858 11.9086 20.5487 12.6457 19.6402 12.6457Z" fill="white"/>
</svg>
