<svg width="16" height="16" viewBox="0 0 16 16" fill="none" xmlns="http://www.w3.org/2000/svg">
<path d="M8 7.75C6.05859 7.75 4.5 6.19141 4.5 4.25C4.5 2.33594 6.05859 0.75 8 0.75C9.91406 0.75 11.5 2.33594 11.5 4.25C11.5 6.19141 9.91406 7.75 8 7.75ZM10.4336 8.625C12.457 8.625 14.125 10.293 14.125 12.3164V13.4375C14.125 14.1758 13.5234 14.75 12.8125 14.75H3.1875C2.44922 14.75 1.875 14.1758 1.875 13.4375V12.3164C1.875 10.293 3.51562 8.625 5.53906 8.625H6.00391C6.60547 8.92578 7.28906 9.0625 8 9.0625C8.71094 9.0625 9.36719 8.92578 9.96875 8.625H10.4336Z" fill="#8386A5"/>
</svg>
