<svg width="14" height="14" viewBox="0 0 14 14" fill="none" xmlns="http://www.w3.org/2000/svg">
<path fill-rule="evenodd" clip-rule="evenodd" d="M13.202 1.86074C13.3454 2.00409 13.3454 2.28861 13.202 2.43196L8.59318 7.04082L13.2024 11.6074C13.3454 11.7508 13.3453 12.035 13.202 12.1782L12.1783 13.202C12.0351 13.3452 11.7505 13.345 11.6071 13.202L7.04087 8.59313L2.43201 13.202C2.28865 13.3453 2.00414 13.3453 1.86079 13.202L0.837018 12.1782C0.693786 12.035 0.694029 11.7505 0.837019 11.607L5.44588 7.04082L0.837018 2.43196C0.693664 2.28861 0.693664 2.00409 0.837018 1.86074L1.86079 0.836968C2.00414 0.693615 2.28865 0.693615 2.43201 0.836969L7.04087 5.44583L11.6074 0.836596C11.7509 0.693615 12.035 0.693739 12.1783 0.836969L13.202 1.86074Z" fill="#8386A5"/>
</svg>
