<svg width="12" height="11" viewBox="0 0 12 11" fill="none" xmlns="http://www.w3.org/2000/svg">
<path d="M11.1562 1.5C11.2865 1.5 11.3971 1.54557 11.4883 1.63672C11.5794 1.72786 11.625 1.83854 11.625 1.96875V3.0625C11.625 3.79167 11.2214 4.44922 10.4141 5.03516C9.78906 5.47786 9.07292 5.74479 8.26562 5.83594C7.86198 6.51302 7.41927 6.99479 6.9375 7.28125V8.6875H7.875C8.22656 8.6875 8.51953 8.78516 8.75391 8.98047C9.0013 9.17578 9.125 9.44271 9.125 9.78125V10.0156C9.125 10.1719 9.04688 10.25 8.89062 10.25H3.10938C2.95312 10.25 2.875 10.1719 2.875 10.0156V9.78125C2.875 9.44271 2.99219 9.17578 3.22656 8.98047C3.47396 8.78516 3.77344 8.6875 4.125 8.6875H5.0625V7.28125C5.01042 7.25521 4.9388 7.20964 4.84766 7.14453C4.75651 7.07943 4.59375 6.92318 4.35938 6.67578C4.125 6.42839 3.91667 6.14844 3.73438 5.83594C2.92708 5.74479 2.21094 5.47786 1.58594 5.03516C0.778646 4.44922 0.375 3.79167 0.375 3.0625V1.96875C0.375 1.83854 0.420573 1.72786 0.511719 1.63672C0.602865 1.54557 0.713542 1.5 0.84375 1.5H2.875V0.71875C2.875 0.588542 2.92057 0.477865 3.01172 0.386719C3.10286 0.295573 3.21354 0.25 3.34375 0.25H8.65625C8.78646 0.25 8.89714 0.295573 8.98828 0.386719C9.07943 0.477865 9.125 0.588542 9.125 0.71875V1.5H11.1562ZM2.30859 4.01953C2.55599 4.1888 2.82943 4.32552 3.12891 4.42969C2.98568 3.89583 2.90104 3.33594 2.875 2.75H1.625V3.0625C1.625 3.36198 1.85286 3.68099 2.30859 4.01953ZM10.375 3.0625V2.75H9.125C9.09896 3.33594 9.01432 3.89583 8.87109 4.42969C9.17057 4.32552 9.44401 4.1888 9.69141 4.01953C10.1471 3.68099 10.375 3.36198 10.375 3.0625Z" fill="white"/>
</svg>
