<svg width="450" height="320" viewBox="0 0 450 320" fill="none" xmlns="http://www.w3.org/2000/svg">
<rect opacity="0.15" width="450" height="320" rx="10" fill="url(#paint0_linear_3567_21187)"/>
<g opacity="0.6" clip-path="url(#clip0_3567_21187)">
<path d="M344.599 97.5087C344.127 96.0984 342.711 94.8448 338.305 95.9417C334.056 97.0386 331.381 99.5458 328.076 103.933C324.929 108.321 319.578 113.179 317.69 108.164C314.07 98.6056 314.542 92.0242 314.7 89.517C314.857 84.3459 314.07 63.8183 313.441 58.6472C312.811 53.4761 310.765 51.5957 308.09 52.5359C305.415 53.4761 305.572 58.8039 305.73 63.975C306.044 69.3028 306.831 82.9356 306.831 86.5397C306.831 90.1438 304.471 90.7706 303.369 89.0469C302.268 87.3232 295.501 68.5193 293.455 62.7214C291.409 56.9235 289.678 50.8122 287.003 51.2823C284.485 51.5957 283.541 53.9462 283.856 55.8266C284.17 57.8637 286.846 67.8925 288.262 73.6904C289.678 79.4882 294.084 93.2778 293.77 94.218C293.298 95.0015 291.094 92.8077 288.104 88.4201C285.114 84.0325 276.459 67.5791 273.784 65.6987C271.109 63.8183 267.804 65.8554 269.692 70.243C271.424 74.6306 277.876 87.3232 281.023 94.218C284.17 101.113 282.911 102.366 281.81 101.74C280.708 101.113 263.87 81.3686 261.352 79.4882C258.991 77.6079 255.687 79.3315 257.103 83.4057C258.519 87.4799 277.246 110.045 278.977 114.119C280.708 118.193 281.18 123.834 283.856 132.453C286.531 140.914 293.612 143.422 293.612 144.989C293.612 146.399 292.511 239.862 292.039 248.167L321.466 247.384C319.735 235.945 317.06 163.166 316.588 142.795C316.588 141.698 320.68 139.347 323.04 136.213C325.401 133.236 327.761 125.244 328.391 121.954C329.177 116.783 340.98 102.68 341.767 101.74C344.442 98.7623 345.072 98.6056 344.599 97.5087Z" fill="url(#paint1_linear_3567_21187)"/>
<path d="M75.9728 125.558C75.3434 124.461 74.2418 123.521 70.9371 124.774C67.6324 126.028 65.744 128.222 63.5408 131.983C61.3377 135.743 57.5608 139.974 55.6724 136.214C51.8956 128.849 51.8956 123.678 51.7382 121.64C51.4235 117.566 49.063 101.27 48.2761 97.1954C47.3319 93.1212 45.6009 91.8676 43.5551 92.8078C41.5093 93.748 42.1388 97.9789 42.7683 102.21C43.3977 106.441 45.2862 117.253 45.6009 120.073C45.9156 122.894 44.0272 123.521 43.083 122.424C41.9814 121.17 35.0573 106.754 33.0115 102.366C30.9657 97.9789 29.0773 93.2779 26.8741 93.748C24.8284 94.2181 24.3563 96.0985 24.8284 97.6655C25.1431 99.2325 28.2905 107.067 29.8641 111.455C31.5952 115.843 36.1588 126.498 35.8441 127.282C35.2146 127.752 33.3262 126.185 30.4936 123.051C27.661 119.917 19.4779 107.381 17.1173 106.127C14.7568 104.874 12.3963 106.754 14.1274 110.045C15.8584 113.335 21.9957 123.051 25.1431 128.222C28.2905 133.393 27.3462 134.49 26.402 134.176C25.6152 133.706 10.3505 119.447 8.30476 118.193C6.25898 116.939 3.7411 118.506 5.15741 121.64C6.57371 124.774 23.7268 141.071 25.4578 144.205C27.1889 147.339 27.9757 151.727 30.8083 158.308C33.641 164.89 39.4636 166.143 39.6209 167.397C39.7783 168.494 44.1846 239.108 44.4993 245.689L67.7897 242.712C65.4292 233.78 59.764 179.933 57.7182 163.949C57.5608 163.009 60.5508 160.815 62.2819 158.151C64.0129 155.488 65.1145 149.063 65.2719 146.399C65.5866 142.325 73.6123 129.946 74.2418 129.319C75.9728 126.655 76.4449 126.341 75.9728 125.558Z" fill="url(#paint2_linear_3567_21187)"/>
<path d="M173.698 149.22C173.383 147.966 172.439 146.713 168.662 147.183C164.886 147.496 162.368 149.376 159.22 152.667C156.073 155.958 151.037 159.405 149.936 155.018C148.047 146.556 149.306 141.071 149.621 139.034C150.25 134.647 152.139 117.41 152.139 113.022C152.296 108.635 150.722 106.911 148.362 107.381C146.001 107.851 145.529 112.395 145.057 116.783C144.9 121.014 143.956 132.61 143.484 135.587C143.011 138.564 140.966 138.878 140.179 137.311C139.392 135.744 135.93 119.133 134.828 114.119C133.727 109.105 133.097 103.777 130.737 103.777C128.534 103.777 127.589 105.501 127.589 107.224C127.589 108.948 128.691 117.723 129.32 122.737C129.95 127.752 131.996 139.818 131.524 140.601C131.052 141.228 129.478 139.191 127.432 135.117C125.386 131.199 120.193 116.313 117.99 114.276C115.944 112.395 112.954 113.649 114.056 117.566C115.157 121.484 118.934 132.923 120.823 139.034C122.711 145.146 121.452 146.086 120.665 145.459C119.878 144.832 107.918 126.342 106.187 124.461C104.456 122.581 101.466 123.678 102.096 127.282C102.883 130.886 115.944 151.884 116.888 155.488C117.833 159.092 117.518 163.949 118.934 171.314C120.193 178.836 125.858 181.656 125.701 182.91C125.544 184.007 117.203 237.128 115.944 244.023L140.651 246.843C140.494 236.971 143.326 200.931 145.215 183.85C145.372 182.91 148.991 181.343 151.352 179.149C153.712 176.799 156.545 170.531 157.489 167.71C158.748 163.479 170.393 152.98 171.023 152.354C173.383 150.317 174.013 150.16 173.698 149.22Z" fill="url(#paint3_linear_3567_21187)"/>
<path d="M273.469 88.4202C272.84 86.8532 271.424 85.5996 267.017 86.6965C262.611 87.7934 259.778 90.4573 256.474 95.0016C253.169 99.5459 247.661 104.56 245.615 99.3892C241.838 89.3604 242.468 82.4656 242.468 79.9584C242.625 74.6307 241.838 53.0061 241.209 47.6784C240.579 42.3506 238.376 40.3135 235.701 41.4104C232.868 42.3506 233.026 47.9918 233.341 53.4762C233.655 58.9607 234.599 73.3771 234.442 76.9812C234.442 80.7419 231.924 81.3687 230.823 79.645C229.564 77.9213 222.64 58.1772 220.436 52.2226C218.233 46.2681 216.502 39.8434 213.67 40.1568C210.994 40.4702 210.05 42.8207 210.365 45.0145C210.68 47.2083 213.512 57.7071 215.086 63.6617C216.66 69.6163 221.223 84.1893 220.751 84.9728C220.279 85.913 218.076 83.5625 214.929 79.0182C211.781 74.474 202.811 57.237 199.979 55.1999C197.146 53.1628 193.841 55.3566 195.572 59.9009C197.461 64.4452 204.07 77.7646 207.375 84.9728C210.68 92.181 209.263 93.4346 208.319 92.8078C207.218 92.181 189.592 71.4967 187.074 69.6163C184.557 67.7359 181.094 69.4596 182.668 73.6905C184.242 77.9213 203.755 101.426 205.644 105.814C207.532 110.045 208.004 115.999 210.837 124.931C213.67 133.863 220.909 136.37 221.066 137.937C221.066 139.348 219.964 235.631 219.492 244.25L250.179 243.466C248.29 231.557 245.615 156.898 245.143 135.587C245.143 134.333 249.392 131.983 251.91 128.849C254.428 125.715 256.788 117.41 257.418 113.962C258.362 108.634 270.637 93.748 271.266 92.9645C273.155 89.6738 273.941 89.5171 273.469 88.4202Z" fill="url(#paint4_linear_3567_21187)"/>
<path d="M445 119.917C444.843 118.507 443.741 117.253 439.65 117.41C435.715 117.566 432.725 119.447 429.106 122.737C425.486 126.028 419.821 129.475 419.034 124.618C417.461 115.373 419.192 109.575 419.664 107.381C420.608 102.837 423.598 84.346 424.07 79.645C424.542 74.9441 422.969 72.907 420.451 73.2204C417.933 73.5338 417.146 78.3914 416.359 83.0924C415.572 87.7934 413.999 100.329 413.369 103.463C412.74 106.597 410.537 106.754 409.75 105.03C408.963 103.307 406.288 85.2862 405.501 79.8017C404.714 74.3173 404.242 68.5194 401.724 68.3627C399.363 68.206 398.262 70.0864 398.105 71.9668C397.947 73.8472 398.577 83.2491 398.891 88.7336C399.206 94.0614 400.622 107.224 400.15 108.008C399.678 108.634 398.104 106.284 396.059 101.896C394.17 97.5088 389.449 81.212 387.246 79.0182C385.2 76.8244 381.896 78.078 382.682 82.3089C383.469 86.5398 386.931 99.0758 388.505 105.814C390.079 112.552 388.82 113.492 387.876 112.709C387.089 111.925 375.444 91.3975 373.555 89.3604C371.667 87.3233 368.519 88.2635 368.991 92.0243C369.464 95.7851 382.368 119.29 383.155 123.207C384.099 127.125 383.469 132.296 384.256 140.444C385.2 148.593 391.023 151.883 390.708 153.294C390.551 154.547 378.276 240.959 376.388 248.324L402.826 252.868C403.298 242.369 408.491 173.665 411.638 155.488C411.795 154.391 415.887 153.137 418.562 150.787C421.238 148.436 424.7 141.855 425.801 138.877C427.532 134.49 440.436 123.834 441.223 123.207C444.528 121.17 445.157 121.014 445 119.917Z" fill="url(#paint5_linear_3567_21187)"/>
<path d="M120.35 100.799C120.036 99.5458 118.934 98.2922 115.315 98.7623C111.538 99.2324 109.02 101.113 105.873 104.403C102.725 107.694 97.6895 111.298 96.588 106.911C94.5422 98.4489 95.6438 92.9644 95.9585 90.7706C96.588 86.383 98.1616 68.9894 98.1616 64.4451C98.1616 60.0575 96.588 58.3338 94.3848 58.8039C92.0243 59.274 91.5522 63.8183 91.2375 68.3626C90.9227 72.9069 90.1359 84.5026 89.8212 87.6366C89.3491 90.6139 87.3033 90.9273 86.5164 89.3603C85.7296 87.7933 81.9528 71.1832 80.8512 66.1688C79.7496 60.9977 78.9628 55.6699 76.6023 55.6699C74.3991 55.6699 73.4549 57.5503 73.4549 59.274C73.4549 60.9977 74.7139 69.7729 75.3433 74.7873C75.9728 79.8016 78.1759 92.0242 77.8612 92.651C77.3891 93.2778 75.8154 91.2407 73.7697 87.1665C71.7239 83.249 66.216 68.3626 64.0129 66.3255C61.9671 64.4451 58.9771 65.8554 60.0787 69.7729C61.1802 73.6904 65.1144 85.1294 67.1602 91.2407C69.206 97.352 67.9471 98.2922 67.1602 97.6654C66.3734 97.0386 54.0987 78.548 52.2103 76.6677C50.3219 74.7873 47.3319 75.8842 48.1187 79.4882C48.9056 83.0923 62.4392 104.09 63.3834 107.694C64.485 111.298 64.1702 116.156 65.5865 123.677C67.0028 131.199 72.6681 134.02 72.5107 135.273C72.3533 136.37 63.8555 240.332 62.5965 247.227L87.618 249.734C87.3033 239.862 90.4506 153.137 92.1817 135.9C92.339 134.96 95.9585 133.393 98.319 131.042C100.68 128.692 103.512 122.267 104.299 119.447C105.558 115.216 117.046 104.403 117.675 103.777C120.036 101.896 120.665 101.74 120.35 100.799Z" fill="url(#paint6_linear_3567_21187)"/>
<path d="M216.66 119.447C216.187 118.193 214.771 117.096 210.994 118.35C207.217 119.447 205.014 121.797 202.339 125.871C199.664 129.789 195.258 134.333 193.212 130.102C189.592 121.797 189.75 115.843 189.75 113.649C189.592 109.105 188.019 90.7707 187.389 86.2264C186.602 81.6822 184.714 80.1152 182.353 81.0554C179.993 81.9956 180.308 86.6965 180.78 91.3975C181.252 96.0985 182.668 108.164 182.825 111.455C182.983 114.589 180.937 115.216 179.835 113.806C178.734 112.395 171.967 95.9418 169.921 90.9274C167.876 85.913 166.145 80.5853 163.627 81.0554C161.423 81.3688 160.637 83.5625 161.109 85.2862C161.423 87.0099 164.256 95.9418 165.83 100.956C167.403 105.971 171.967 118.036 171.495 118.82C171.18 119.603 169.134 117.723 166.302 113.962C163.469 110.201 155.129 95.9418 152.611 94.3748C150.093 92.8078 147.418 94.6882 149.149 98.6057C150.88 102.366 157.175 113.492 160.322 119.447C163.469 125.401 162.368 126.655 161.423 126.185C160.479 125.715 144.585 108.948 142.382 107.381C140.179 105.814 137.346 107.538 138.763 110.985C140.179 114.589 157.804 133.706 159.535 137.31C161.266 140.758 161.896 145.929 164.728 153.294C167.561 160.659 173.856 162.539 173.856 163.949C174.013 165.203 175.744 241.615 175.744 248.823L201.867 246.943C199.821 236.914 195.73 178.993 194.313 160.972C194.313 159.875 197.775 157.681 199.821 154.861C201.867 152.04 203.598 144.989 203.913 142.011C204.385 137.467 214.299 124.304 214.771 123.521C216.502 120.544 216.974 120.387 216.66 119.447Z" fill="url(#paint7_linear_3567_21187)"/>
<path d="M312.182 141.855C311.867 140.601 310.923 139.504 307.303 139.818C303.684 140.131 301.166 141.855 298.019 144.989C294.871 148.123 289.993 151.413 289.049 147.182C287.16 138.877 288.577 133.706 288.891 131.669C289.678 127.438 291.567 110.671 291.724 106.441C291.881 102.21 290.465 100.486 288.104 100.799C285.744 101.269 285.272 105.657 284.8 109.888C284.328 114.119 283.383 125.401 282.911 128.379C282.439 131.356 280.551 131.512 279.764 129.945C278.977 128.535 275.83 112.238 274.886 107.381C273.941 102.523 273.312 97.352 271.109 97.1953C269.063 97.1953 267.961 98.919 267.961 100.486C267.961 102.21 268.906 110.671 269.378 115.529C269.85 120.387 271.738 132.139 271.266 132.766C270.794 133.393 269.378 131.356 267.332 127.438C265.444 123.521 260.408 109.104 258.519 107.224C256.631 105.344 253.641 106.597 254.585 110.358C255.529 114.119 259.149 125.245 260.88 131.199C262.611 137.154 261.352 138.094 260.723 137.467C259.936 136.84 248.605 118.663 246.874 116.939C245.143 115.216 242.31 116.156 242.94 119.603C243.569 123.051 256.001 143.735 257.103 147.182C258.047 150.63 257.733 155.331 258.834 162.696C259.936 170.061 265.444 172.724 265.286 173.978C265.129 175.075 256.474 236.629 255.057 243.21L279.135 246.188C279.135 236.629 282.282 191.528 284.328 175.075C284.485 174.135 288.104 172.724 290.308 170.531C292.668 168.337 295.501 162.226 296.288 159.562C297.547 155.488 308.877 145.302 309.506 144.832C311.867 142.795 312.339 142.795 312.182 141.855Z" fill="url(#paint8_linear_3567_21187)"/>
<path d="M388.348 121.014C387.718 119.76 386.302 118.663 382.525 119.917C378.591 121.171 376.23 123.678 373.555 127.909C370.88 132.139 366.159 136.997 364.113 132.453C360.179 123.834 360.179 117.566 360.179 115.373C360.021 110.515 357.976 91.5543 357.189 86.6966C356.402 81.9956 354.356 80.4286 351.838 81.3688C349.478 82.309 349.793 87.3234 350.422 92.1811C350.894 97.0388 352.625 109.731 352.783 113.022C352.94 116.313 350.894 117.096 349.635 115.529C348.376 114.119 340.98 96.8821 338.777 91.711C336.574 86.5399 334.685 80.8987 332.01 81.3688C329.65 81.8389 329.02 84.0327 329.335 85.7564C329.65 87.6368 332.797 96.8821 334.528 102.053C336.259 107.224 341.137 119.917 340.823 120.7C340.508 121.484 338.305 119.604 335.157 115.686C332.01 111.769 323.04 97.0388 320.365 95.4718C317.69 93.9048 314.857 95.9419 316.745 99.8594C318.634 103.777 325.401 115.216 328.705 121.484C332.167 127.595 330.908 129.005 329.964 128.379C329.02 127.909 312.024 110.515 309.664 108.948C307.303 107.381 304.313 109.105 305.887 112.865C307.461 116.626 326.187 136.37 328.233 139.974C330.122 143.579 330.908 148.906 333.898 156.585C336.888 164.263 343.498 166.143 343.655 167.554C343.813 168.807 346.645 237.883 346.645 245.561L373.87 243.054C371.509 232.555 366.474 182.91 364.743 164.106C364.585 163.009 368.205 160.659 370.408 157.681C372.454 154.704 374.185 147.183 374.499 144.049C374.971 139.191 385.043 125.245 385.672 124.461C388.19 122.267 388.82 121.954 388.348 121.014Z" fill="url(#paint9_linear_3567_21187)"/>
</g>
<path d="M0 240H450V310C450 315.523 445.523 320 440 320H10C4.47715 320 0 315.523 0 310V240Z" fill="#F2E5FF"/>
<path d="M91.709 287V272.908H101.045V275.34H94.6582V278.738H100.684V281.004H94.6582V284.568H101.045V287H91.709ZM109.442 287L104.745 272.908H108.055L111.17 283.719H111.346L114.452 272.908H117.772L113.075 287H109.442ZM121.784 287V272.908H131.12V275.34H124.733V278.738H130.759V281.004H124.733V284.568H131.12V287H121.784ZM135.825 287V272.908H141.695C144.898 272.908 146.734 274.617 146.734 277.391V277.41C146.734 279.217 145.796 280.77 144.185 281.404L147.154 287H143.814L141.187 281.844H138.775V287H135.825ZM138.775 279.695H141.372C142.847 279.695 143.716 278.855 143.716 277.469V277.449C143.716 276.092 142.808 275.213 141.333 275.213H138.775V279.695ZM154.759 287V281.736L149.857 272.908H153.05L156.156 278.836H156.332L159.427 272.908H162.621L157.709 281.736V287H154.759ZM173.379 287V272.908H179.19C182.159 272.908 184.141 274.822 184.141 277.723V277.742C184.141 280.643 182.159 282.557 179.19 282.557H176.329V287H173.379ZM178.467 275.242H176.329V280.252H178.467C180.157 280.252 181.153 279.354 181.153 277.752V277.732C181.153 276.131 180.157 275.242 178.467 275.242ZM194.354 287.361C190.741 287.361 188.446 285.271 188.446 282.137V272.908H191.395V281.873C191.395 283.699 192.46 284.861 194.354 284.861C196.249 284.861 197.304 283.699 197.304 281.873V272.908H200.253V282.137C200.253 285.262 197.987 287.361 194.354 287.361ZM205.271 287V272.908H208.22V284.568H214.489V287H205.271ZM223.804 287.361C220.435 287.361 218.306 285.75 218.14 283.25L218.13 283.094H220.972L220.982 283.191C221.089 284.246 222.232 284.959 223.882 284.959C225.455 284.959 226.539 284.207 226.539 283.123V283.113C226.539 282.186 225.845 281.668 224.097 281.307L222.613 281.004C219.683 280.408 218.423 279.041 218.423 276.902V276.893C218.423 274.275 220.67 272.547 223.795 272.547C227.086 272.547 229.019 274.285 229.205 276.639L229.214 276.766H226.441L226.421 276.648C226.255 275.643 225.279 274.939 223.795 274.939C222.339 274.949 221.373 275.613 221.373 276.668V276.678C221.373 277.596 222.056 278.143 223.716 278.484L225.211 278.787C228.189 279.402 229.488 280.594 229.488 282.791V282.801C229.488 285.594 227.32 287.361 223.804 287.361ZM233.881 287V272.908H243.217V275.34H236.83V278.738H242.855V281.004H236.83V284.568H243.217V287H233.881ZM254.679 287V272.908H258.057L261.954 283.221H262.13L266.016 272.908H269.395V287H266.768V277.41H266.573L262.96 287H261.114L257.501 277.41H257.305V287H254.679ZM273.417 287L278.31 272.908H281.777L286.679 287H283.573L282.529 283.582H277.558L276.513 287H273.417ZM279.96 275.721L278.232 281.375H281.855L280.136 275.721H279.96ZM292.566 287V275.34H288.337V272.908H299.744V275.34H295.515V287H292.566ZM307.369 287V275.34H303.141V272.908H314.547V275.34H310.318V287H307.369ZM318.754 287V272.908H328.09V275.34H321.704V278.738H327.729V281.004H321.704V284.568H328.09V287H318.754ZM332.796 287V272.908H338.665C341.868 272.908 343.704 274.617 343.704 277.391V277.41C343.704 279.217 342.766 280.77 341.155 281.404L344.124 287H340.784L338.157 281.844H335.745V287H332.796ZM335.745 279.695H338.343C339.817 279.695 340.686 278.855 340.686 277.469V277.449C340.686 276.092 339.778 275.213 338.304 275.213H335.745V279.695ZM353.321 287.361C349.952 287.361 347.823 285.75 347.657 283.25L347.648 283.094H350.489L350.499 283.191C350.607 284.246 351.749 284.959 353.4 284.959C354.972 284.959 356.056 284.207 356.056 283.123V283.113C356.056 282.186 355.362 281.668 353.614 281.307L352.13 281.004C349.2 280.408 347.941 279.041 347.941 276.902V276.893C347.941 274.275 350.187 272.547 353.312 272.547C356.603 272.547 358.536 274.285 358.722 276.639L358.732 276.766H355.958L355.939 276.648C355.773 275.643 354.796 274.939 353.312 274.939C351.857 274.949 350.89 275.613 350.89 276.668V276.678C350.89 277.596 351.573 278.143 353.234 278.484L354.728 278.787C357.706 279.402 359.005 280.594 359.005 282.791V282.801C359.005 285.594 356.837 287.361 353.321 287.361Z" fill="#5E00CC"/>
<defs>
<linearGradient id="paint0_linear_3567_21187" x1="140.581" y1="33.7783" x2="149.213" y2="309.087" gradientUnits="userSpaceOnUse">
<stop stop-color="#7700EE" stop-opacity="0.2"/>
<stop offset="1" stop-color="#7700EE" stop-opacity="0.7"/>
</linearGradient>
<linearGradient id="paint1_linear_3567_21187" x1="499.968" y1="87.4905" x2="31.4684" y2="200.286" gradientUnits="userSpaceOnUse">
<stop stop-color="#7700EE"/>
<stop offset="0.1533" stop-color="#7A42FF"/>
<stop offset="0.489" stop-color="#CFBBFF"/>
<stop offset="1" stop-color="#7700EE"/>
</linearGradient>
<linearGradient id="paint2_linear_3567_21187" x1="171.5" y1="246" x2="-26.7418" y2="184.548" gradientUnits="userSpaceOnUse">
<stop offset="0.489" stop-color="#CFBBFF"/>
<stop offset="1" stop-color="#7700EE"/>
</linearGradient>
<linearGradient id="paint3_linear_3567_21187" x1="292.5" y1="320" x2="2.35138" y2="188.603" gradientUnits="userSpaceOnUse">
<stop stop-color="#7700EE"/>
<stop offset="0.1533" stop-color="#7A42FF"/>
<stop offset="0.489" stop-color="#CFBBFF"/>
<stop offset="1" stop-color="#7700EE"/>
</linearGradient>
<linearGradient id="paint4_linear_3567_21187" x1="524.236" y1="56.7897" x2="-87.5545" y2="204.084" gradientUnits="userSpaceOnUse">
<stop stop-color="#7700EE"/>
<stop offset="0.1533" stop-color="#7A42FF"/>
<stop offset="0.489" stop-color="#CFBBFF"/>
<stop offset="1" stop-color="#7700EE"/>
</linearGradient>
<linearGradient id="paint5_linear_3567_21187" x1="495.998" y1="123.343" x2="119.478" y2="371.226" gradientUnits="userSpaceOnUse">
<stop stop-color="#7700EE"/>
<stop offset="0.1533" stop-color="#7A42FF"/>
<stop offset="0.489" stop-color="#CFBBFF"/>
<stop offset="1" stop-color="#7700EE"/>
</linearGradient>
<linearGradient id="paint6_linear_3567_21187" x1="232" y1="316" x2="-26.8884" y2="172.606" gradientUnits="userSpaceOnUse">
<stop stop-color="#7700EE"/>
<stop offset="0.1533" stop-color="#7A42FF"/>
<stop offset="0.489" stop-color="#CFBBFF"/>
<stop offset="1" stop-color="#7700EE"/>
</linearGradient>
<linearGradient id="paint7_linear_3567_21187" x1="389" y1="303.5" x2="7.57128" y2="208.932" gradientUnits="userSpaceOnUse">
<stop stop-color="#7700EE"/>
<stop offset="0.1533" stop-color="#7A42FF"/>
<stop offset="0.489" stop-color="#CFBBFF"/>
<stop offset="1" stop-color="#7700EE"/>
</linearGradient>
<linearGradient id="paint8_linear_3567_21187" x1="385.451" y1="155.201" x2="27.6269" y2="298.816" gradientUnits="userSpaceOnUse">
<stop stop-color="#7700EE"/>
<stop offset="0.1533" stop-color="#7A42FF"/>
<stop offset="0.489" stop-color="#CFBBFF"/>
<stop offset="1" stop-color="#7700EE"/>
</linearGradient>
<linearGradient id="paint9_linear_3567_21187" x1="491.463" y1="111.99" x2="34.2353" y2="263.856" gradientUnits="userSpaceOnUse">
<stop stop-color="#7700EE"/>
<stop offset="0.1533" stop-color="#7A42FF"/>
<stop offset="0.489" stop-color="#CFBBFF"/>
<stop offset="1" stop-color="#7700EE"/>
</linearGradient>
<clipPath id="clip0_3567_21187">
<rect width="440" height="207" fill="white" transform="translate(5 40)"/>
</clipPath>
</defs>
</svg>
