<svg width="24" height="24" viewBox="0 0 24 24" fill="none" xmlns="http://www.w3.org/2000/svg">
<path fill-rule="evenodd" clip-rule="evenodd" d="M1.90024 1C1.40319 1 1.00024 1.40294 1.00024 1.9V9.1C1.00024 9.59706 1.40319 10 1.90024 10C2.3973 10 2.80024 9.59706 2.80024 9.1V2.8H9.10024C9.5973 2.8 10.0002 2.39706 10.0002 1.9C10.0002 1.40294 9.5973 1 9.10024 1H1.90024ZM23.0002 1.9C23.0002 1.40294 22.5973 1 22.1002 1H14.9002C14.4032 1 14.0002 1.40294 14.0002 1.9C14.0002 2.39706 14.4032 2.8 14.9002 2.8L21.2002 2.8L21.2002 9.1C21.2002 9.59706 21.6032 10 22.1002 10C22.5973 10 23.0002 9.59706 23.0002 9.1V1.9ZM1.00024 22.1C1.00024 22.5971 1.40319 23 1.90024 23H9.10024C9.5973 23 10.0002 22.5971 10.0002 22.1C10.0002 21.6029 9.5973 21.2 9.10024 21.2H2.80024V14.9C2.80024 14.4029 2.3973 14 1.90024 14C1.40319 14 1.00024 14.4029 1.00024 14.9V22.1ZM23.0002 22.1C23.0002 22.5971 22.5973 23 22.1002 23H14.9002C14.4032 23 14.0002 22.5971 14.0002 22.1C14.0002 21.6029 14.4032 21.2 14.9002 21.2H21.2002L21.2002 14.9C21.2002 14.4029 21.6032 14 22.1002 14C22.5973 14 23.0002 14.4029 23.0002 14.9V22.1Z" fill="#8386A5"/>
</svg>
