<svg width="25" height="22" viewBox="0 0 25 22" fill="none" xmlns="http://www.w3.org/2000/svg">
<path d="M15.0469 10.4375L16.0781 12.5H21.1875L12.6562 21.2188C12.4687 21.4062 12.25 21.5 12 21.5C11.7812 21.5 11.5937 21.4062 11.4375 21.2188L2.90624 12.5H7.31249L8.71874 9.125L11.3906 15.0781C11.5156 15.3594 11.7344 15.5 12.0469 15.5C12.3594 15.5 12.5781 15.3594 12.7031 15.0781L15.0469 10.4375ZM22.2656 2.46875C23.3906 3.625 23.9844 5.03125 24.0469 6.6875C24.1094 8.3125 23.625 9.75 22.5937 11H17.0156L15.7031 8.42188C15.5781 8.14062 15.3594 8 15.0469 8C14.7344 8 14.5156 8.14062 14.3906 8.42188L12.0937 13.0156L9.37499 6.92188C9.21874 6.64062 8.96874 6.5 8.62499 6.5C8.31249 6.5 8.09374 6.65625 7.96874 6.96875L6.28124 11H1.49999C0.468736 9.75 -0.015639 8.3125 0.046861 6.6875C0.109361 5.03125 0.703111 3.625 1.82811 2.46875L1.96874 2.375C3.15624 1.125 4.60936 0.5 6.32811 0.5C8.04686 0.5 9.51561 1.125 10.7344 2.375L12.0469 3.6875L13.3594 2.32812C14.5781 1.10938 16.0469 0.5 17.7656 0.5C19.4844 0.5 20.9375 1.10938 22.125 2.32812L22.2656 2.46875Z" fill="white"/>
</svg>
