<svg width="24" height="19" viewBox="0 0 24 19" fill="none" xmlns="http://www.w3.org/2000/svg">
<path fill-rule="evenodd" clip-rule="evenodd" d="M6 0L0.833333 2.37228C0.375 2.58409 0 3.1348 0 3.64314V18.3004C0 18.8088 0.458333 19.1477 0.875 18.9359L6 16.5L18 19L23.125 16.6483C23.5833 16.4365 24 15.8858 24 15.3775V0.720156C24 0.211811 23.5 -0.127086 23.0833 0.0847243L18 2.75L6 0ZM7.4963 14.7391V1.94974L16.5037 4.23918V17.0285L7.4963 14.7391Z" fill="#8386A5"/>
<path d="M6 1.5V14.8571L18 17.5V4.14286L6 1.5Z" fill="white"/>
<path d="M14.6405 7.05141C15.0426 7.05141 15.4446 7.05141 15.8467 7.05141C16.299 7.05141 16.5 7.30848 16.5 7.71979C16.5 8.54242 16.5 9.36504 16.5 10.1877C16.5 10.4447 16.4497 10.6504 16.1985 10.7532C15.8969 10.9075 15.6959 10.8046 15.4949 10.599C15.2938 10.3933 15.0928 10.2391 14.942 10.0334C14.8415 9.93059 14.741 9.93059 14.6405 10.0334C14.0877 10.599 13.5851 11.1131 13.0323 11.6787C12.781 11.9357 12.5297 12.0386 12.1779 11.9871C11.9769 11.9357 11.8764 11.8329 11.7256 11.7301C11.2231 11.2159 10.7205 10.7018 10.2179 10.1362C10.1174 10.0334 10.0672 10.0334 9.91639 10.1362C9.56459 10.5476 9.16254 10.9075 8.81074 11.3188C8.5092 11.6787 8.00664 11.6272 7.80561 11.473C7.50407 11.2674 7.40356 10.8046 7.60459 10.3933C7.7051 10.2391 7.90613 10.0848 8.10715 9.87918C8.55946 9.41645 9.01177 8.95373 9.46408 8.491C9.86613 8.07969 10.3687 8.07969 10.7205 8.491C11.2231 9.00514 11.7256 9.51928 12.2282 10.0334C12.3287 10.1362 12.379 10.1362 12.4795 10.0334C12.8313 9.62211 13.1831 9.26221 13.5851 8.90231C13.6856 8.79949 13.6856 8.74807 13.5851 8.64524C13.3841 8.43959 13.1831 8.23393 12.982 8.02828C12.781 7.82262 12.7308 7.61697 12.8313 7.3599C12.9318 7.10283 13.1328 7 13.3841 7C13.7861 7.05141 14.2385 7.05141 14.6405 7.05141Z" fill="#8386A5"/>
</svg>
