<svg width="25" height="20" viewBox="0 0 25 20" fill="none" xmlns="http://www.w3.org/2000/svg">
<path fill-rule="evenodd" clip-rule="evenodd" d="M24.5323 11.0505C24.9299 10.4065 24.9299 9.59327 24.5324 8.94925L19.6193 0.989658C19.255 0.399519 18.611 0.0402092 17.9175 0.0401668L7.85234 0.0395508C7.15883 0.0395083 6.5148 0.398738 6.15046 0.988833L1.23635 8.94783C0.838744 9.59179 0.838694 10.405 1.23622 11.0491L6.14936 19.0086C6.51363 19.5988 7.15761 19.9581 7.85112 19.9581L17.9163 19.9588C18.6098 19.9588 19.2538 19.5996 19.6182 19.0095L24.5323 11.0505ZM19.2969 9.99679C19.2969 8.2533 18.679 6.77218 17.4434 5.55343C16.2246 4.31775 14.7435 3.69992 13 3.69992C11.2565 3.69992 9.76694 4.31775 8.53126 5.55343L7.38868 4.43624C7.28712 4.33468 7.16863 4.30929 7.03322 4.36007C6.91473 4.41085 6.85548 4.50395 6.85548 4.63937V7.86398C6.85548 7.94861 6.88087 8.02479 6.93165 8.09249C6.99936 8.14328 7.07553 8.16867 7.16017 8.16867H10.4356C10.571 8.16867 10.6641 8.10942 10.7149 7.99093C10.7656 7.85552 10.7402 7.73703 10.6387 7.63546L9.39454 6.41671C10.3932 5.41802 11.5951 4.91867 13 4.91867C14.405 4.91867 15.5983 5.41802 16.5801 6.41671C17.5788 7.39848 18.0781 8.59184 18.0781 9.99679C18.0781 11.4017 17.5788 12.6036 16.5801 13.6023C15.5983 14.584 14.405 15.0749 13 15.0749C11.7136 15.0749 10.5879 14.6433 9.62306 13.78C9.47071 13.6615 9.32683 13.67 9.19142 13.8054L8.75978 14.237C8.60743 14.3894 8.6159 14.5332 8.78517 14.6687C9.98699 15.752 11.3919 16.2937 13 16.2937C14.7435 16.2937 16.2246 15.6758 17.4434 14.4402C18.679 13.2045 19.2969 11.7234 19.2969 9.99679ZM14.625 12.3327C14.7943 12.4512 14.9382 12.4343 15.0567 12.2819L15.4121 11.7741C15.5306 11.6218 15.5052 11.4864 15.3359 11.3679L13.6094 10.0984V6.4421C13.6094 6.23898 13.5078 6.13742 13.3047 6.13742H12.6953C12.4922 6.13742 12.3906 6.23898 12.3906 6.4421V10.7077L14.625 12.3327Z" fill="#8386A5"/>
</svg>
