<svg width="16" height="16" viewBox="0 0 16 16" fill="none" xmlns="http://www.w3.org/2000/svg">
<path d="M10.1094 7.63281C9.53125 8.21094 8.82812 8.5 8 8.5C7.17188 8.5 6.46094 8.21094 5.86719 7.63281C5.28906 7.03906 5 6.32812 5 5.5C5 4.67188 5.28906 3.96875 5.86719 3.39062C6.46094 2.79688 7.17188 2.5 8 2.5C8.82812 2.5 9.53125 2.79688 10.1094 3.39062C10.7031 3.96875 11 4.67188 11 5.5C11 6.32812 10.7031 7.03906 10.1094 7.63281ZM10.1094 9.25C10.9688 9.25 11.7031 9.5625 12.3125 10.1875C12.9375 10.7969 13.25 11.5312 13.25 12.3906V13.375C13.25 13.6875 13.1406 13.9531 12.9219 14.1719C12.7031 14.3906 12.4375 14.5 12.125 14.5H3.875C3.5625 14.5 3.29688 14.3906 3.07812 14.1719C2.85938 13.9531 2.75 13.6875 2.75 13.375V12.3906C2.75 11.5312 3.05469 10.7969 3.66406 10.1875C4.28906 9.5625 5.03125 9.25 5.89062 9.25H6.28906C6.83594 9.5 7.40625 9.625 8 9.625C8.59375 9.625 9.16406 9.5 9.71094 9.25H10.1094Z" fill="#8386A5"/>
</svg>
