<svg width="24" height="24" viewBox="0 0 24 24" fill="none" xmlns="http://www.w3.org/2000/svg">
<path d="M21.5977 9.96489C22.2656 10.5977 22.2656 11.6876 21.5977 12.3204L15.4102 18.5079C14.3555 19.5977 12.5625 18.8243 12.5625 17.3126V14.5704C7.39453 14.8868 6.97266 16.3282 7.81641 19.0704C8.30859 20.6172 6.58594 21.8477 5.28516 20.9688C3.21094 19.5977 1.875 17.4532 1.875 14.8868C1.875 8.87505 7.71094 7.92583 12.5625 7.78521V4.97271C12.5625 3.46099 14.3555 2.68755 15.4102 3.77739L21.5977 9.96489ZM14.25 17.3126L20.4375 11.1251L14.25 4.93755V9.47271C9.1875 9.47271 3.5625 9.85943 3.5625 14.8868C3.5625 17.2422 4.96875 18.7188 6.23438 19.5625C4.47656 14.0079 8.44922 12.8829 14.25 12.8477V17.3126Z" fill="#8386A5"/>
</svg>
