<svg width="17" height="16" viewBox="0 0 17 16" fill="none" xmlns="http://www.w3.org/2000/svg">
<path d="M9.84375 6.1875C10.6354 6.97917 11.0625 7.9375 11.125 9.0625C11.1875 10.1875 10.8646 11.1771 10.1562 12.0312C10.0521 12.1562 9.16667 13.0521 7.5 14.7188C6.64583 15.5729 5.61458 16 4.40625 16C3.19792 16 2.16667 15.5729 1.3125 14.7188C0.458333 13.8646 0.03125 12.8333 0.03125 11.625C0.03125 10.4167 0.458333 9.38542 1.3125 8.53125C1.6875 8.15625 2.08333 7.76042 2.5 7.34375C2.91667 6.92708 3.17708 6.66667 3.28125 6.5625C3.40625 6.4375 3.54167 6.40625 3.6875 6.46875C3.85417 6.53125 3.9375 6.64583 3.9375 6.8125C3.9375 7.20833 3.98958 7.60417 4.09375 8C4.11458 8.125 4.07292 8.23958 3.96875 8.34375L2.5625 9.78125C2.04167 10.2812 1.78125 10.8958 1.78125 11.625C1.78125 12.3542 2.03125 12.9792 2.53125 13.5C3.05208 14 3.67708 14.25 4.40625 14.25C5.13542 14.25 5.75 13.9896 6.25 13.4688L8.625 11.125C9.125 10.625 9.375 10.0104 9.375 9.28125C9.375 8.55208 9.125 7.92708 8.625 7.40625C8.41667 7.19792 8.17708 7.03125 7.90625 6.90625C7.73958 6.82292 7.66667 6.69792 7.6875 6.53125C7.72917 6.15625 7.88542 5.83333 8.15625 5.5625L8.28125 5.4375C8.42708 5.3125 8.57292 5.29167 8.71875 5.375C9.13542 5.58333 9.51042 5.85417 9.84375 6.1875ZM11.6562 0C12.8646 0 13.8958 0.427083 14.75 1.28125C15.6042 2.13542 16.0312 3.16667 16.0312 4.375C16.0312 5.58333 15.6042 6.61458 14.75 7.46875C14.375 7.84375 13.9792 8.23958 13.5625 8.65625C13.1458 9.07292 12.8854 9.33333 12.7812 9.4375C12.6562 9.5625 12.5104 9.59375 12.3438 9.53125C12.1979 9.46875 12.125 9.35417 12.125 9.1875C12.125 8.79167 12.0729 8.39583 11.9688 8C11.9479 7.875 11.9896 7.76042 12.0938 7.65625L13.5 6.21875C14.0208 5.71875 14.2812 5.10417 14.2812 4.375C14.2812 3.64583 14.0208 3.03125 13.5 2.53125C13 2.01042 12.3854 1.75 11.6562 1.75C10.9271 1.75 10.3125 2.01042 9.8125 2.53125L7.4375 4.875C6.9375 5.375 6.6875 5.98958 6.6875 6.71875C6.6875 7.44792 6.9375 8.07292 7.4375 8.59375C7.64583 8.80208 7.88542 8.96875 8.15625 9.09375C8.32292 9.17708 8.39583 9.30208 8.375 9.46875C8.33333 9.84375 8.17708 10.1667 7.90625 10.4375L7.78125 10.5625C7.63542 10.6875 7.48958 10.7083 7.34375 10.625C6.92708 10.4167 6.55208 10.1458 6.21875 9.8125C5.42708 9.02083 5 8.0625 4.9375 6.9375C4.875 5.8125 5.19792 4.82292 5.90625 3.96875C6.01042 3.84375 6.89583 2.94792 8.5625 1.28125C9.41667 0.427083 10.4479 0 11.6562 0Z" fill="#8386A5"/>
</svg>
