<svg width="28" height="34" viewBox="0 0 28 34" fill="none" xmlns="http://www.w3.org/2000/svg">
<g filter="url(#filter0_d_1423_9130)">
<path d="M13.1964 27.0268C7.33035 18.5893 6.28571 17.7054 6.28571 14.5715C6.28571 10.3125 9.70088 6.85718 14 6.85718C18.2589 6.85718 21.7143 10.3125 21.7143 14.5715C21.7143 17.7054 20.6295 18.5893 14.7634 27.0268C14.4018 27.5893 13.558 27.5893 13.1964 27.0268ZM14 17.7857C15.7678 17.7857 17.2143 16.3795 17.2143 14.5715C17.2143 12.8036 15.7678 11.3572 14 11.3572C12.192 11.3572 10.7857 12.8036 10.7857 14.5715C10.7857 16.3795 12.192 17.7857 14 17.7857Z" fill="white"/>
</g>
<defs>
<filter id="filter0_d_1423_9130" x="0.285706" y="0.857178" width="27.4286" height="32.5915" filterUnits="userSpaceOnUse" color-interpolation-filters="sRGB">
<feFlood flood-opacity="0" result="BackgroundImageFix"/>
<feColorMatrix in="SourceAlpha" type="matrix" values="0 0 0 0 0 0 0 0 0 0 0 0 0 0 0 0 0 0 127 0" result="hardAlpha"/>
<feOffset/>
<feGaussianBlur stdDeviation="3"/>
<feComposite in2="hardAlpha" operator="out"/>
<feColorMatrix type="matrix" values="0 0 0 0 0 0 0 0 0 0 0 0 0 0 0 0 0 0 0.35 0"/>
<feBlend mode="normal" in2="BackgroundImageFix" result="effect1_dropShadow_1423_9130"/>
<feBlend mode="normal" in="SourceGraphic" in2="effect1_dropShadow_1423_9130" result="shape"/>
</filter>
</defs>
</svg>
