<svg width="124" height="40" viewBox="0 0 124 40" fill="none" xmlns="http://www.w3.org/2000/svg">
<g clip-path="url(#clip0_2363_14972)">
<path d="M50.7409 20.8H53.4431V25.3C52.8426 25.7 52.142 26.1 51.2413 26.3C50.4407 26.5 49.64 26.7 48.8394 26.7C47.7385 26.7 46.6376 26.5 45.7369 26C44.8361 25.5 44.1356 24.8 43.5351 24C43.0347 23.1 42.7344 22.2 42.7344 21.1C42.7344 20 43.0347 19 43.5351 18.2C44.0355 17.3 44.7361 16.7 45.7369 16.2C46.6376 15.7 47.7385 15.5 48.8394 15.5C49.8402 15.5 50.7409 15.7 51.5415 16C52.3422 16.3 53.0427 16.8 53.5432 17.5L51.5415 19.3C51.0411 18.4 50.1404 18 49.1396 18C48.2389 18 47.4382 18.3 46.8377 18.8C46.2373 19.3 46.0371 20.1 46.0371 21.1C46.0371 21.7 46.1372 22.2 46.4374 22.7C46.7377 23.2 47.0379 23.5 47.5383 23.8C48.0387 24.1 48.5391 24.2 49.1396 24.2C49.7401 24.2 50.2405 24.1 50.841 23.8V20.8H50.7409Z" fill="#2E3046"/>
<path d="M58.4471 26C57.5464 25.5 56.8458 24.8 56.2453 24C55.7449 23.1 55.4447 22.2 55.4447 21.1C55.4447 20 55.7449 19 56.2453 18.2C56.7458 17.3 57.4463 16.7 58.4471 16.2C59.3478 15.7 60.4487 15.5 61.5496 15.5C62.6505 15.5 63.7514 15.7 64.6521 16.2C65.5528 16.7 66.2534 17.4 66.8539 18.2C67.3543 19.1 67.6545 20 67.6545 21.1C67.6545 22.2 67.3543 23.2 66.8539 24C66.3535 24.9 65.6529 25.5 64.6521 26C63.7514 26.5 62.6505 26.7 61.5496 26.7C60.4487 26.7 59.3478 26.5 58.4471 26ZM63.0508 23.8C63.4512 23.5 63.8515 23.2 64.1517 22.7C64.452 22.2 64.552 21.7 64.552 21.1C64.552 20.5 64.452 19.9 64.1517 19.5C63.8515 19 63.5512 18.7 63.0508 18.4C62.6505 18.1 62.1501 18 61.5496 18C60.9491 18 60.5488 18.1 60.0484 18.4C59.6481 18.7 59.2478 19 58.9475 19.5C58.6473 20 58.5472 20.5 58.5472 21.1C58.5472 21.7 58.6473 22.3 58.9475 22.7C59.2478 23.2 59.548 23.5 60.0484 23.8C60.4487 24.1 60.9491 24.2 61.5496 24.2C62.1501 24.2 62.6505 24.1 63.0508 23.8Z" fill="#2E3046"/>
<path d="M80.4649 13.5C79.364 12.6 77.8628 12.1 75.9612 12.1H70.2566V26.6H72.7586V22.3H75.9612C77.8628 22.3 79.364 21.8 80.4649 20.9C81.5657 20 82.1662 18.7 82.1662 17.1C82.1662 15.5 81.5657 14.4 80.4649 13.5ZM79.5641 17.2C79.5641 18.1 79.2639 18.8 78.6634 19.3C78.0629 19.8 77.1622 20.1 75.8611 20.1H72.6586V14.3H75.8611C77.0621 14.3 77.9628 14.6 78.6634 15.1C79.2639 15.6 79.5641 16.3 79.5641 17.2Z" fill="#5E00CC"/>
<path d="M92.2744 21.2C92.2744 22.3 91.9741 23.1 91.4737 23.6C90.9733 24.2 90.1727 24.4 89.2719 24.4C88.4713 24.4 87.7707 24.2 87.3704 23.7C86.9701 23.2 86.6699 22.5 86.6699 21.5V15.4H84.2679V21.8C84.2679 23.4 84.6682 24.6 85.569 25.4C86.4697 26.2 87.5706 26.6 89.0718 26.6C89.8724 26.6 90.573 26.4 91.2736 26.1C91.6739 25.9 92.0742 25.6 92.4745 25.3V26.5H94.7764V15.5H92.3745V21.2H92.2744Z" fill="#5E00CC"/>
<path d="M100.081 11.2H97.6787V26.6H100.081V11.2Z" fill="#5E00CC"/>
<path d="M109.488 20.6C108.988 20.4 108.287 20.3 107.387 20.1C106.786 20 106.286 19.9 105.885 19.8C105.585 19.7 105.285 19.6 105.085 19.4C104.885 19.2 104.784 19 104.784 18.8C104.784 18.4 104.985 18.2 105.285 17.9C105.685 17.7 106.286 17.5 106.986 17.5C108.087 17.5 109.088 17.8 109.889 18.3L110.089 18.4L111.19 16.4L110.989 16.3C110.489 16 109.889 15.7 109.188 15.6C108.487 15.4 107.687 15.3 106.986 15.3C105.585 15.3 104.484 15.6 103.583 16.2C102.683 16.8 102.282 17.7 102.282 18.7C102.282 19.5 102.483 20.2 102.883 20.6C103.283 21 103.784 21.4 104.384 21.6C104.985 21.8 105.685 21.9 106.486 22.1C107.086 22.2 107.587 22.3 107.887 22.4C108.187 22.5 108.487 22.6 108.688 22.8C108.888 22.9 108.888 23.1 108.888 23.4C108.888 23.7 108.888 24.6 106.586 24.6C105.885 24.6 105.285 24.5 104.584 24.3C103.984 24.1 103.383 23.9 102.983 23.5L102.783 23.3L101.782 25.3L101.982 25.4C102.483 25.8 103.083 26.1 103.984 26.3C104.784 26.5 105.685 26.7 106.586 26.7C108.087 26.7 109.188 26.4 110.089 25.8C110.989 25.2 111.39 24.3 111.39 23.3C111.39 22.5 111.19 21.9 110.789 21.4C110.489 21.1 110.089 20.8 109.488 20.6Z" fill="#5E00CC"/>
<path d="M123.299 18.2C122.799 17.3 122.198 16.7 121.298 16.2C120.497 15.7 119.496 15.5 118.496 15.5C117.395 15.5 116.494 15.7 115.593 16.2C114.793 16.7 114.092 17.4 113.592 18.2C113.091 19.1 112.891 20 112.891 21.1C112.891 22.2 113.191 23.2 113.592 24C114.092 24.9 114.793 25.6 115.693 26C116.594 26.5 117.595 26.7 118.796 26.7C119.696 26.7 120.497 26.5 121.298 26.2C121.998 25.9 122.699 25.4 123.199 24.8L123.299 24.6L121.898 23L121.698 23.2C120.998 24 119.997 24.4 118.796 24.4C117.795 24.4 116.994 24.1 116.294 23.6C115.693 23.1 115.393 22.5 115.193 21.8H123.8V21.6C123.8 21.3 123.8 21.1 123.8 21C124 20 123.8 19 123.299 18.2ZM115.393 20.1C115.493 19.4 115.893 18.8 116.394 18.3C116.994 17.8 117.695 17.5 118.496 17.5C119.396 17.5 120.097 17.8 120.597 18.3C121.098 18.8 121.398 19.4 121.598 20.1H115.393Z" fill="#5E00CC"/>
<path d="M16.4132 39.6L1.60129 31.1C0.600484 30.5 0 29.5 0 28.4V11.5C0 10.4 0.600484 9.40001 1.60129 8.80001L15.2123 1.10001L16.4132 0.400012C17.414 -0.199988 18.615 -0.199988 19.5157 0.400012L34.4278 8.90001C35.4286 9.50001 36.0291 10.5 36.0291 11.6V28.5C36.0291 29.6 35.4286 30.6 34.4278 31.2L19.5157 39.7C18.615 40.1 17.414 40.1 16.4132 39.6Z" fill="#5E00CC"/>
<path d="M27.4221 22.2H29.4237C29.6239 22.2 29.724 22.1 29.724 21.9V18.3C29.724 18 29.5238 17.8 29.2236 17.8H27.4221C27.222 17.8 27.1219 17.9 27.1219 18.1V21.9C27.1219 22.1 27.222 22.2 27.4221 22.2Z" fill="url(#paint0_linear_2363_14972)"/>
<path d="M22.318 25.5H24.0194C24.2196 25.5 24.4197 25.3 24.4197 25.1V15C24.4197 14.7 24.2196 14.5 23.9193 14.5H22.318C22.1179 14.5 21.9177 14.7 21.9177 14.9V25C21.9177 25.3 22.1179 25.5 22.318 25.5Z" fill="url(#paint1_linear_2363_14972)"/>
<path d="M17.4141 31.8H18.7151C19.1154 31.8 19.4157 31.5 19.4157 31.1V8.70001C19.4157 8.40001 19.2155 8.20001 18.9153 8.20001H17.5142C17.1138 8.20001 16.8136 8.50001 16.8136 8.90001V31.2C16.7135 31.5 17.0137 31.8 17.4141 31.8Z" fill="url(#paint2_linear_2363_14972)"/>
<path d="M12.0097 26.8H13.611C13.9113 26.8 14.1114 26.6 14.1114 26.3V13.7C14.1114 13.4 13.9113 13.2 13.611 13.2H12.0097C11.7095 13.2 11.5093 13.4 11.5093 13.7V26.4C11.5093 26.6 11.7095 26.8 12.0097 26.8Z" fill="url(#paint3_linear_2363_14972)"/>
<path d="M6.60536 22.8H8.60697C8.80713 22.8 8.90721 22.7 8.90721 22.5V17.8C8.90721 17.5 8.70705 17.3 8.40681 17.3H6.60536C6.4052 17.3 6.30511 17.4 6.30511 17.6V22.5C6.30511 22.6 6.4052 22.8 6.60536 22.8Z" fill="url(#paint4_linear_2363_14972)"/>
</g>
<defs>
<linearGradient id="paint0_linear_2363_14972" x1="27.9296" y1="18.4592" x2="27.9529" y2="21.6395" gradientUnits="userSpaceOnUse">
<stop stop-color="#D9AFFF"/>
<stop offset="1" stop-color="white"/>
</linearGradient>
<linearGradient id="paint1_linear_2363_14972" x1="22.6944" y1="16.1479" x2="22.8454" y2="24.0962" gradientUnits="userSpaceOnUse">
<stop stop-color="#D9AFFF"/>
<stop offset="1" stop-color="white"/>
</linearGradient>
<linearGradient id="paint2_linear_2363_14972" x1="17.608" y1="11.7355" x2="18.2706" y2="28.7686" gradientUnits="userSpaceOnUse">
<stop stop-color="#D9AFFF"/>
<stop offset="1" stop-color="white"/>
</linearGradient>
<linearGradient id="paint3_linear_2363_14972" x1="12.3171" y1="15.2374" x2="12.539" y2="25.063" gradientUnits="userSpaceOnUse">
<stop stop-color="#D9AFFF"/>
<stop offset="1" stop-color="white"/>
</linearGradient>
<linearGradient id="paint4_linear_2363_14972" x1="7.11286" y1="18.124" x2="7.14917" y2="22.0992" gradientUnits="userSpaceOnUse">
<stop stop-color="#D9AFFF"/>
<stop offset="1" stop-color="white"/>
</linearGradient>
<clipPath id="clip0_2363_14972">
<rect width="124" height="40" fill="white"/>
</clipPath>
</defs>
</svg>
