<svg width="124" height="40" viewBox="0 0 124 40" fill="none" xmlns="http://www.w3.org/2000/svg">
<g clip-path="url(#clip0_2378_223)">
<path d="M50.7408 20.8H53.443V25.3C52.8425 25.7 52.142 26.1 51.2412 26.3C50.4406 26.5 49.6399 26.7 48.8393 26.7C47.7384 26.7 46.6375 26.5 45.7368 26C44.8361 25.5 44.1355 24.8 43.535 24C43.0346 23.1 42.7344 22.2 42.7344 21.1C42.7344 20 43.0346 19 43.535 18.2C44.0354 17.3 44.736 16.7 45.7368 16.2C46.6375 15.7 47.7384 15.5 48.8393 15.5C49.8401 15.5 50.7408 15.7 51.5415 16C52.3421 16.3 53.0427 16.8 53.5431 17.5L51.5415 19.3C51.0411 18.4 50.1403 18 49.1395 18C48.2388 18 47.4382 18.3 46.8377 18.8C46.2372 19.3 46.037 20.1 46.037 21.1C46.037 21.7 46.1371 22.2 46.4374 22.7C46.7376 23.2 47.0378 23.5 47.5382 23.8C48.0387 24.1 48.5391 24.2 49.1395 24.2C49.74 24.2 50.2404 24.1 50.8409 23.8V20.8H50.7408Z" fill="#2E3046"/>
<path d="M58.4472 26C57.5465 25.5 56.846 24.8 56.2455 24C55.7451 23.1 55.4448 22.2 55.4448 21.1C55.4448 20 55.7451 19 56.2455 18.2C56.7459 17.3 57.4464 16.7 58.4472 16.2C59.348 15.7 60.4489 15.5 61.5497 15.5C62.6506 15.5 63.7515 15.7 64.6522 16.2C65.553 16.7 66.2535 17.4 66.854 18.2C67.3544 19.1 67.6547 20 67.6547 21.1C67.6547 22.2 67.3544 23.2 66.854 24C66.3536 24.9 65.6531 25.5 64.6522 26C63.7515 26.5 62.6506 26.7 61.5497 26.7C60.4489 26.7 59.348 26.5 58.4472 26ZM63.051 23.8C63.4513 23.5 63.8516 23.2 64.1518 22.7C64.4521 22.2 64.5522 21.7 64.5522 21.1C64.5522 20.5 64.4521 19.9 64.1518 19.5C63.8516 19 63.5514 18.7 63.051 18.4C62.6506 18.1 62.1502 18 61.5497 18C60.9493 18 60.5489 18.1 60.0485 18.4C59.6482 18.7 59.2479 19 58.9476 19.5C58.6474 20 58.5473 20.5 58.5473 21.1C58.5473 21.7 58.6474 22.3 58.9476 22.7C59.2479 23.2 59.5481 23.5 60.0485 23.8C60.4489 24.1 60.9493 24.2 61.5497 24.2C62.1502 24.2 62.6506 24.1 63.051 23.8Z" fill="#2E3046"/>
<path d="M80.4646 13.5C79.3637 12.6 77.8625 12.1 75.961 12.1H70.2563V26.6H72.7584V22.3H75.961C77.8625 22.3 79.3637 21.8 80.4646 20.9C81.5655 20 82.1659 18.7 82.1659 17.1C82.1659 15.5 81.5655 14.4 80.4646 13.5ZM79.5639 17.2C79.5639 18.1 79.2636 18.8 78.6631 19.3C78.0626 19.8 77.1619 20.1 75.8609 20.1H72.6583V14.3H75.8609C77.0618 14.3 77.9626 14.6 78.6631 15.1C79.2636 15.6 79.5639 16.3 79.5639 17.2Z" fill="#5E00CC"/>
<path d="M92.274 21.1999C92.274 22.2999 91.9738 23.0999 91.4734 23.5999C90.973 24.1999 90.1723 24.3999 89.2716 24.3999C88.471 24.3999 87.7704 24.1999 87.3701 23.6999C86.9698 23.1999 86.6695 22.4999 86.6695 21.4999V15.3999H84.2676V21.7999C84.2676 23.3999 84.6679 24.5999 85.5686 25.3999C86.4694 26.1999 87.5702 26.5999 89.0715 26.5999C89.8721 26.5999 90.5727 26.3999 91.2732 26.0999C91.6735 25.8999 92.0739 25.5999 92.4742 25.2999V26.4999H94.7761V15.4999H92.3741V21.1999H92.274Z" fill="#5E00CC"/>
<path d="M100.08 11.2H97.6782V26.6H100.08V11.2Z" fill="#5E00CC"/>
<path d="M109.488 20.5999C108.988 20.3999 108.287 20.2999 107.386 20.0999C106.786 19.9999 106.285 19.8999 105.885 19.7999C105.585 19.6999 105.285 19.5999 105.084 19.3999C104.884 19.1999 104.784 18.9999 104.784 18.7999C104.784 18.3999 104.984 18.1999 105.285 17.8999C105.685 17.6999 106.285 17.4999 106.986 17.4999C108.087 17.4999 109.088 17.7999 109.888 18.2999L110.088 18.3999L111.189 16.3999L110.989 16.2999C110.489 15.9999 109.888 15.6999 109.188 15.5999C108.487 15.3999 107.687 15.2999 106.986 15.2999C105.585 15.2999 104.484 15.5999 103.583 16.1999C102.682 16.7999 102.282 17.6999 102.282 18.6999C102.282 19.4999 102.482 20.1999 102.883 20.5999C103.283 20.9999 103.783 21.3999 104.384 21.5999C104.984 21.7999 105.685 21.8999 106.486 22.0999C107.086 22.1999 107.586 22.2999 107.887 22.3999C108.187 22.4999 108.487 22.5999 108.687 22.7999C108.887 22.8999 108.887 23.0999 108.887 23.3999C108.887 23.6999 108.887 24.5999 106.586 24.5999C105.885 24.5999 105.285 24.4999 104.584 24.2999C103.984 24.0999 103.383 23.8999 102.983 23.4999L102.783 23.2999L101.782 25.2999L101.982 25.3999C102.482 25.7999 103.083 26.0999 103.984 26.2999C104.784 26.4999 105.685 26.6999 106.586 26.6999C108.087 26.6999 109.188 26.3999 110.088 25.7999C110.989 25.1999 111.389 24.2999 111.389 23.2999C111.389 22.4999 111.189 21.8999 110.789 21.3999C110.489 21.0999 110.088 20.7999 109.488 20.5999Z" fill="#5E00CC"/>
<path d="M123.299 18.2C122.799 17.3 122.198 16.7 121.297 16.2C120.497 15.7 119.496 15.5 118.495 15.5C117.394 15.5 116.494 15.7 115.593 16.2C114.792 16.7 114.092 17.4 113.591 18.2C113.091 19.1 112.891 20 112.891 21.1C112.891 22.2 113.191 23.2 113.591 24C114.092 24.9 114.792 25.6 115.693 26C116.594 26.5 117.594 26.7 118.795 26.7C119.696 26.7 120.497 26.5 121.297 26.2C121.998 25.9 122.699 25.4 123.199 24.8L123.299 24.6L121.898 23L121.698 23.2C120.997 24 119.996 24.4 118.795 24.4C117.795 24.4 116.994 24.1 116.293 23.6C115.693 23.1 115.393 22.5 115.192 21.8H123.799V21.6C123.799 21.3 123.799 21.1 123.799 21C124 20 123.799 19 123.299 18.2ZM115.393 20.1C115.493 19.4 115.893 18.8 116.393 18.3C116.994 17.8 117.694 17.5 118.495 17.5C119.396 17.5 120.096 17.8 120.597 18.3C121.097 18.8 121.397 19.4 121.598 20.1H115.393Z" fill="#5E00CC"/>
<path d="M16.4132 39.6L1.60129 31.1C0.600484 30.5 0 29.5 0 28.4V11.5C0 10.4 0.600484 9.39995 1.60129 8.79995L15.2123 1.09995L16.4132 0.399951C17.414 -0.200049 18.615 -0.200049 19.5157 0.399951L34.4278 8.89995C35.4286 9.49995 36.0291 10.5 36.0291 11.6V28.5C36.0291 29.6 35.4286 30.6 34.4278 31.2L19.5157 39.7C18.615 40.1 17.414 40.1 16.4132 39.6Z" fill="#5E00CC"/>
<path d="M27.4223 22.1999H29.4239C29.6241 22.1999 29.7242 22.0999 29.7242 21.8999V18.2999C29.7242 17.9999 29.524 17.7999 29.2238 17.7999H27.4223C27.2222 17.7999 27.1221 17.8999 27.1221 18.0999V21.8999C27.1221 22.0999 27.2222 22.1999 27.4223 22.1999Z" fill="url(#paint0_linear_2378_223)"/>
<path d="M22.3183 25.5H24.0197C24.2198 25.5 24.42 25.3 24.42 25.1V15C24.42 14.7 24.2198 14.5 23.9196 14.5H22.3183C22.1181 14.5 21.918 14.7 21.918 14.9V25C21.918 25.3 22.1181 25.5 22.3183 25.5Z" fill="url(#paint1_linear_2378_223)"/>
<path d="M17.4143 31.7999H18.7154C19.1157 31.7999 19.4159 31.5 19.4159 31.1V8.69995C19.4159 8.39995 19.2158 8.19995 18.9155 8.19995H17.5144C17.1141 8.19995 16.8138 8.49995 16.8138 8.89995V31.1999C16.7137 31.5 17.014 31.7999 17.4143 31.7999Z" fill="url(#paint2_linear_2378_223)"/>
<path d="M12.0097 26.8H13.611C13.9112 26.8 14.1114 26.6 14.1114 26.3V13.7C14.1114 13.4 13.9112 13.2 13.611 13.2H12.0097C11.7094 13.2 11.5093 13.4 11.5093 13.7V26.4C11.5093 26.6 11.7094 26.8 12.0097 26.8Z" fill="url(#paint3_linear_2378_223)"/>
<path d="M6.60542 22.7999H8.60703C8.80719 22.7999 8.90727 22.6999 8.90727 22.4999V17.7999C8.90727 17.4999 8.70711 17.2999 8.40687 17.2999H6.60542C6.40526 17.2999 6.30518 17.3999 6.30518 17.5999V22.4999C6.30518 22.5999 6.40526 22.7999 6.60542 22.7999Z" fill="url(#paint4_linear_2378_223)"/>
</g>
<defs>
<linearGradient id="paint0_linear_2378_223" x1="27.9298" y1="18.4591" x2="27.9531" y2="21.6394" gradientUnits="userSpaceOnUse">
<stop stop-color="#D9AFFF"/>
<stop offset="1" stop-color="white"/>
</linearGradient>
<linearGradient id="paint1_linear_2378_223" x1="22.6946" y1="16.1479" x2="22.8456" y2="24.0962" gradientUnits="userSpaceOnUse">
<stop stop-color="#D9AFFF"/>
<stop offset="1" stop-color="white"/>
</linearGradient>
<linearGradient id="paint2_linear_2378_223" x1="17.6082" y1="11.7355" x2="18.2708" y2="28.7686" gradientUnits="userSpaceOnUse">
<stop stop-color="#D9AFFF"/>
<stop offset="1" stop-color="white"/>
</linearGradient>
<linearGradient id="paint3_linear_2378_223" x1="12.317" y1="15.2374" x2="12.5389" y2="25.0629" gradientUnits="userSpaceOnUse">
<stop stop-color="#D9AFFF"/>
<stop offset="1" stop-color="white"/>
</linearGradient>
<linearGradient id="paint4_linear_2378_223" x1="7.11292" y1="18.1239" x2="7.14923" y2="22.0991" gradientUnits="userSpaceOnUse">
<stop stop-color="#D9AFFF"/>
<stop offset="1" stop-color="white"/>
</linearGradient>
<clipPath id="clip0_2378_223">
<rect width="124" height="40" fill="white"/>
</clipPath>
</defs>
</svg>
