<svg id="exiYIgD8cUR1" xmlns="http://www.w3.org/2000/svg" xmlns:xlink="http://www.w3.org/1999/xlink" viewBox="0 0 65.55 59" shape-rendering="geometricPrecision" text-rendering="geometricPrecision" project-id="f30fbd02d3c9408c8981a60efc3ef9ec" export-id="4bf572be4cd940feb8f669a3242b0b8c" cached="false"><defs><linearGradient id="exiYIgD8cUR2-fill" x1="54.8241" y1="26.1479" x2="54.8822" y2="34.0987" spreadMethod="pad" gradientUnits="userSpaceOnUse" gradientTransform="translate(0 0)"><stop id="exiYIgD8cUR2-fill-0" offset="0%" stop-color="#d9afff"/><stop id="exiYIgD8cUR2-fill-1" offset="100%" stop-color="#fff"/></linearGradient><linearGradient id="exiYIgD8cUR3-fill" x1="41.7359" y1="20.3698" x2="42.1134" y2="40.2405" spreadMethod="pad" gradientUnits="userSpaceOnUse" gradientTransform="translate(0 0)"><stop id="exiYIgD8cUR3-fill-0" offset="0%" stop-color="#d9afff"/><stop id="exiYIgD8cUR3-fill-1" offset="100%" stop-color="#fff"/></linearGradient><linearGradient id="exiYIgD8cUR4-fill" x1="29.0198" y1="9.33876" x2="30.6763" y2="51.9215" spreadMethod="pad" gradientUnits="userSpaceOnUse" gradientTransform="translate(0 0)"><stop id="exiYIgD8cUR4-fill-0" offset="0%" stop-color="#d9afff"/><stop id="exiYIgD8cUR4-fill-1" offset="100%" stop-color="#fff"/></linearGradient><linearGradient id="exiYIgD8cUR5-fill" x1="15.7926" y1="18.0935" x2="16.3473" y2="42.6574" spreadMethod="pad" gradientUnits="userSpaceOnUse" gradientTransform="translate(0 0)"><stop id="exiYIgD8cUR5-fill-0" offset="0%" stop-color="#d9afff"/><stop id="exiYIgD8cUR5-fill-1" offset="100%" stop-color="#fff"/></linearGradient><linearGradient id="exiYIgD8cUR6-fill" x1="2.78206" y1="25.3099" x2="2.87283" y2="35.248" spreadMethod="pad" gradientUnits="userSpaceOnUse" gradientTransform="translate(0 0)"><stop id="exiYIgD8cUR6-fill-0" offset="0%" stop-color="#d9afff"/><stop id="exiYIgD8cUR6-fill-1" offset="100%" stop-color="#fff"/></linearGradient></defs><path d="M53.5553,35.5h5.004c.5004,0,.7506-.25.7506-.75v-9c0-.75-.5004-1.25-1.251-1.25h-4.5036c-.5004,0-.7506.25-.7506.75v9.5c0,.5.2502.75.7506.75Z" transform="translate(2.738703-.5)" fill="url(#exiYIgD8cUR2-fill)"/><path d="M40.795,43.75h4.2534c.5004,0,1.0008-.5,1.0008-1v-25.25c0-.75-.5004-1.25-1.251-1.25h-4.0032c-.5004,0-1.0008.5-1.0008,1v25.25c0,.75.5004,1.25,1.0008,1.25Z" transform="translate(2.738703-.5)" fill="url(#exiYIgD8cUR3-fill)"/><path d="M28.5351,59.5h3.2526c1.0008,0,1.7514-.75,1.7514-1.75v-56c0-.75-.5004-1.25-1.251-1.25h-3.5028c-1.0008,0-1.7515.75-1.7515,1.75v55.75c-.2502.75.5004,1.5,1.5013,1.5Z" transform="translate(2.738703-.5)" fill="url(#exiYIgD8cUR4-fill)"/><path d="M15.0242,47h4.0032c.7506,0,1.251-.5,1.251-1.25v-31.5c0-.75-.5004-1.25-1.251-1.25h-4.0032c-.7506,0-1.251.5-1.251,1.25v31.75c0,.5.5004,1,1.251,1Z" transform="translate(2.738703-.5)" fill="url(#exiYIgD8cUR5-fill)"/><path d="M1.5133,37h5.00404c.5004,0,.7506-.25.7506-.75v-11.75c0-.75-.5004-1.25-1.25101-1.25h-4.50363c-.5004,0-.750605.25-.750605.75v12.25c0,.25.250205.75.750605.75Z" transform="translate(2.738703-.5)" fill="url(#exiYIgD8cUR6-fill)"/></svg>
