<svg width="169" height="40" viewBox="0 0 169 40" fill="none" xmlns="http://www.w3.org/2000/svg">
<path d="M9.34839 18.6968L14.3527 6.5682C14.5613 6.01216 15.1173 5.69939 15.7081 5.69939C16.2989 5.73415 16.7854 6.11642 16.9592 6.67246L23.8401 28.5665L29.331 13.3797C29.5048 12.8584 29.9913 12.5109 30.5474 12.4761C31.1034 12.4414 31.6247 12.7194 31.8679 13.2059L34.8219 18.6968H44.5526C44.4831 18.5578 44.4136 18.4188 44.3441 18.2798L34.8567 1.73762C34.2311 0.660296 33.0843 0 31.8332 0H12.7541C11.503 0 10.3562 0.660296 9.73067 1.73762L0.208514 18.245C0.13901 18.384 0.0695048 18.523 0 18.662H9.34839V18.6968Z" fill="#7700EE"/>
<path d="M34.0225 21.4425C33.5013 21.4425 33.0495 21.1644 32.8062 20.7127L30.9296 17.2374L25.0564 33.3973C24.8479 33.9533 24.3266 34.3009 23.7358 34.3009H23.7011C23.1103 34.3009 22.589 33.8838 22.4152 33.3278L15.4648 11.1558L11.5725 20.6084C11.364 21.1297 10.8427 21.4772 10.2867 21.4772H0.069458C0.10421 21.5815 0.138963 21.651 0.208468 21.7552L9.76537 38.2626C10.3909 39.34 11.5377 40.0002 12.7888 40.0002H31.8679C33.119 40.0002 34.2658 39.34 34.8914 38.2626L44.4483 21.7552C44.5178 21.651 44.5525 21.5467 44.5873 21.4772H34.0225V21.4425Z" fill="#7700EE"/>
<path d="M168.115 10.2798V13.1469H159.603V16.6434H166.809V19.394H159.603V22.8439H168.115V25.711H156.408V10.2798H168.115Z" fill="#3B275D"/>
<path d="M145.054 25.9907C140.017 25.9907 138.175 23.7762 138.175 20.7692V20.676H141.183V20.7459C141.183 22.4476 142.559 23.3566 145.054 23.3566C147.34 23.3566 148.482 22.7972 148.482 21.3986V21.352C148.482 20.1165 147.55 19.6737 145.987 19.4872L143.748 19.2308C140.507 18.8578 138.408 17.6923 138.385 14.4522V14.4056C138.408 11.655 140.344 10 144.821 10C149.299 10 151.211 12.028 151.211 14.9417V15.0816H148.203V14.9883C148.179 13.4499 147.013 12.634 144.751 12.634C142.489 12.634 141.556 13.1702 141.533 14.359V14.4056C141.533 15.641 142.443 16.1072 144.285 16.3636L146.827 16.6434C149.602 16.9697 151.631 18.2051 151.654 21.1422V21.2354C151.654 24.4289 149.369 25.9907 145.054 25.9907Z" fill="#3B275D"/>
<path d="M127.724 10.2798V22.8439H135.28V25.711H124.553V10.2798H127.724Z" fill="#3B275D"/>
<path d="M111.66 25.9907C106.646 26.0141 104.291 23.6131 104.291 18.4849V10.2798H107.626V18.718C107.626 21.9348 108.978 23.1236 111.66 23.1236C114.342 23.1236 115.695 21.9348 115.695 18.718V10.2798H119.029V18.4849C119.029 23.6131 116.674 25.9907 111.66 25.9907Z" fill="#3B275D"/>
<path d="M87.1637 10.2798H93.9031C97.8908 10.2798 99.6398 11.8416 99.6632 15.1283V15.1749C99.6632 18.4616 97.9142 20.07 93.9031 20.07H90.3352V25.711H87.1637V10.2798ZM96.4217 15.1749V15.1283C96.4217 13.8695 95.8154 13.0071 93.8798 13.0071H90.3352V17.3427H93.8798C95.8387 17.3427 96.4217 16.4569 96.4217 15.1749Z" fill="#3B275D"/>
<path d="M76.807 25.9907C73.1225 25.9907 71.4201 23.986 71.4201 20.9091V19.4405C71.4201 16.3869 73.1458 14.3823 76.807 14.359C80.4916 14.3357 82.2172 16.3869 82.2172 19.4405V20.9091C82.2172 23.986 80.4916 25.9907 76.807 25.9907ZM76.807 23.5431C78.3461 23.5431 79.139 22.5874 79.139 21.0956V19.2774C79.139 17.7622 78.3695 16.7832 76.807 16.7832C75.2679 16.7832 74.4983 17.7622 74.4983 19.2774V21.0956C74.4983 22.5874 75.2679 23.5431 76.807 23.5431Z" fill="#7700EE"/>
<path d="M64.2839 16.5038V14.639H66.7558V24.5924C66.7558 28.4152 64.9135 30.0003 61.6487 30.0003C58.5938 30.0003 56.8448 28.6017 56.8448 26.1075V25.991H59.7365V26.0609C59.7365 27.0632 60.3428 27.6227 61.6954 27.6227C62.978 27.6227 63.7941 27.0166 63.7941 25.315V23.3802C63.1878 24.3826 62.1851 25.0586 60.646 25.0586C57.9408 25.0586 56.4484 23.1238 56.4484 20.0935V19.3243C56.4484 16.294 57.9408 14.3593 60.7626 14.3593C62.6048 14.3593 63.7009 15.245 64.2839 16.5038ZM61.6254 22.611C62.9546 22.611 63.7941 21.6786 63.7941 20.1868V19.231C63.7941 17.7159 62.9546 16.7835 61.6254 16.7835C60.3661 16.7835 59.5033 17.576 59.5033 19.3243V20.0935C59.5033 21.8185 60.3661 22.611 61.6254 22.611Z" fill="#7700EE"/>
</svg>
