<svg width="24" height="24" viewBox="0 0 24 24" fill="none" xmlns="http://www.w3.org/2000/svg">
<path d="M20.6401 13.6457H13.6456V20.6402C13.6456 21.5487 12.9085 22.2858 12 22.2858C11.0914 22.2858 10.3543 21.5487 10.3543 20.6402V13.6457H3.35988C2.45133 13.6457 1.71425 12.9086 1.71425 12.0001C1.71425 11.0915 2.45133 10.3544 3.35988 10.3544H10.3543V3.35999C10.3543 2.45144 11.0914 1.71436 12 1.71436C12.9085 1.71436 13.6456 2.45144 13.6456 3.35999V10.3544H20.6401C21.5486 10.3544 22.2857 11.0915 22.2857 12.0001C22.2857 12.9086 21.5486 13.6457 20.6401 13.6457Z" fill="#8386A5"/>
</svg>
