<svg width="28" height="24" viewBox="0 0 28 24" fill="none" xmlns="http://www.w3.org/2000/svg">
<path d="M26.1704 13.4446C26.7171 12.5591 26.7172 11.4409 26.1706 10.5554L21.2575 2.59581C20.7566 1.78437 19.8711 1.29032 18.9176 1.29026L8.85239 1.28965C7.89881 1.28959 7.01327 1.78353 6.51229 2.59491L1.59819 10.5539C1.05148 11.4394 1.05141 12.5576 1.59801 13.4431L6.51114 21.4027C7.01201 22.2141 7.8975 22.7082 8.85107 22.7082L18.9162 22.7088C19.8698 22.7089 20.7554 22.215 21.2563 21.4036L26.1704 13.4446Z" fill="#8386A5" stroke="url(#paint0_linear_2297_11839)" stroke-width="1.5"/>
<path d="M18.4434 7.55347C19.679 8.77222 20.2969 10.2533 20.2969 11.9968C20.2969 13.7234 19.679 15.2045 18.4434 16.4402C17.2246 17.6759 15.7435 18.2937 14 18.2937C12.3919 18.2937 10.987 17.752 9.78516 16.6687C9.61589 16.5333 9.60742 16.3894 9.75977 16.2371L10.1914 15.8054C10.3268 15.67 10.4707 15.6615 10.623 15.78C11.5879 16.6433 12.7135 17.075 14 17.075C15.4049 17.075 16.5983 16.5841 17.5801 15.6023C18.5788 14.6036 19.0781 13.4018 19.0781 11.9968C19.0781 10.5919 18.5788 9.39852 17.5801 8.41675C16.5983 7.41805 15.4049 6.9187 14 6.9187C12.5951 6.9187 11.3932 7.41805 10.3945 8.41675L11.6387 9.6355C11.7402 9.73706 11.7656 9.85555 11.7148 9.99097C11.6641 10.1095 11.571 10.1687 11.4355 10.1687H8.16016C8.07552 10.1687 7.99935 10.1433 7.93164 10.0925C7.88086 10.0248 7.85547 9.94865 7.85547 9.86401V6.6394C7.85547 6.50399 7.91471 6.41089 8.0332 6.36011C8.16862 6.30933 8.28711 6.33472 8.38867 6.43628L9.53125 7.55347C10.7669 6.31779 12.2565 5.69995 14 5.69995C15.7435 5.69995 17.2246 6.31779 18.4434 7.55347ZM16.0566 14.282C15.9382 14.4343 15.7943 14.4513 15.625 14.3328L13.3906 12.7078V8.44214C13.3906 8.23901 13.4922 8.13745 13.6953 8.13745H14.3047C14.5078 8.13745 14.6094 8.23901 14.6094 8.44214V12.0984L16.3359 13.3679C16.5052 13.4864 16.5306 13.6218 16.4121 13.7742L16.0566 14.282Z" fill="white"/>
<defs>
<linearGradient id="paint0_linear_2297_11839" x1="10.5" y1="7.16827e-07" x2="20" y2="23" gradientUnits="userSpaceOnUse">
<stop stop-color="#F8D82E"/>
<stop offset="1" stop-color="#FDAC4A"/>
</linearGradient>
</defs>
</svg>
