<svg width="24" height="20" viewBox="0 0 24 20" fill="none" xmlns="http://www.w3.org/2000/svg">
<path d="M4.98581 9.34839L7.65479 3.2841C7.766 3.00608 8.06255 2.8497 8.37764 2.8497C8.69273 2.86707 8.95222 3.05821 9.04489 3.33623L12.7147 14.2832L15.6432 6.68984C15.7359 6.42919 15.9954 6.25543 16.2919 6.23805C16.5885 6.22068 16.8665 6.35969 16.9962 6.60295L18.5717 9.34839H23.7614C23.7243 9.27889 23.6872 9.20938 23.6502 9.13988L18.5902 0.86881C18.2566 0.330148 17.6449 0 16.9777 0H6.8022C6.13496 0 5.52331 0.330148 5.18969 0.86881L0.111208 9.1225C0.0741384 9.19201 0.0370692 9.26151 0 9.33102H4.98581V9.34839Z" fill="#8386A5"/>
<path d="M18.1454 10.7212C17.8673 10.7212 17.6264 10.5822 17.4967 10.3563L16.4958 8.61871L13.3634 16.6986C13.2522 16.9767 12.9742 17.1504 12.6591 17.1504H12.6406C12.3255 17.1504 12.0475 16.9419 11.9548 16.6639L8.24788 5.57788L6.172 10.3042C6.0608 10.5648 5.78278 10.7386 5.48622 10.7386H0.0370483C0.0555829 10.7907 0.0741176 10.8255 0.111187 10.8776L5.2082 19.1313C5.54183 19.67 6.15347 20.0001 6.82072 20.0001H16.9962C17.6635 20.0001 18.2751 19.67 18.6087 19.1313L23.7057 10.8776C23.7428 10.8255 23.7614 10.7734 23.7799 10.7386H18.1454V10.7212Z" fill="#8386A5"/>
</svg>
