<svg width="20" height="23" viewBox="0 0 20 23" fill="none" xmlns="http://www.w3.org/2000/svg">
<path d="M9.11111 22.01L0.888889 17.2916C0.333333 16.9585 0 16.4034 0 15.7928V6.41149C0 5.80087 0.333333 5.24577 0.888889 4.9127L8.44444 0.638374L9.11111 0.249798C9.66667 -0.0832661 10.3333 -0.0832661 10.8333 0.249798L19.1111 4.96821C19.6667 5.30128 20 5.85639 20 6.467V15.8483C20 16.4589 19.6667 17.014 19.1111 17.3471L10.8333 22.0655C10.3333 22.2876 9.66667 22.2876 9.11111 22.01Z" fill="#8386A5"/>
<path d="M15.2222 12.3509H16.3333C16.4444 12.3509 16.5 12.2954 16.5 12.1844V10.186C16.5 10.0195 16.3889 9.90845 16.2222 9.90845H15.2222C15.1111 9.90845 15.0555 9.96396 15.0555 10.075V12.1844C15.0555 12.2954 15.1111 12.3509 15.2222 12.3509Z" fill="white"/>
<path d="M12.389 14.1828H13.3334C13.4445 14.1828 13.5556 14.0718 13.5556 13.9608V8.35421C13.5556 8.18768 13.4445 8.07666 13.2779 8.07666H12.389C12.2779 8.07666 12.1667 8.18768 12.1667 8.2987V13.9053C12.1667 14.0718 12.2779 14.1828 12.389 14.1828Z" fill="white"/>
<path d="M9.66673 17.6799H10.389C10.6112 17.6799 10.7778 17.5134 10.7778 17.2913V4.8569C10.7778 4.69037 10.6667 4.57935 10.5001 4.57935H9.72229C9.50007 4.57935 9.3334 4.74588 9.3334 4.96792V17.3468C9.27784 17.5134 9.44451 17.6799 9.66673 17.6799Z" fill="white"/>
<path d="M6.66682 14.9044H7.5557C7.72237 14.9044 7.83348 14.7934 7.83348 14.6269V7.63253C7.83348 7.466 7.72237 7.35498 7.5557 7.35498H6.66682C6.50015 7.35498 6.38904 7.466 6.38904 7.63253V14.6824C6.38904 14.7934 6.50015 14.9044 6.66682 14.9044Z" fill="white"/>
<path d="M3.66667 12.6842H4.77778C4.88889 12.6842 4.94444 12.6287 4.94444 12.5177V9.90866C4.94444 9.74213 4.83333 9.6311 4.66667 9.6311H3.66667C3.55556 9.6311 3.5 9.68661 3.5 9.79764V12.5177C3.5 12.5732 3.55556 12.6842 3.66667 12.6842Z" fill="white"/>
</svg>
