<svg width="45" height="40" viewBox="0 0 45 40" fill="none" xmlns="http://www.w3.org/2000/svg">
<g filter="url(#filter0_d_2297_14134)">
<path fill-rule="evenodd" clip-rule="evenodd" d="M34.5322 21.0505C34.9298 20.4065 34.9298 19.5933 34.5323 18.9493L29.6192 10.9897C29.2549 10.3995 28.6109 10.0402 27.9174 10.0402L17.8522 10.0396C17.1587 10.0395 16.5147 10.3987 16.1503 10.9888L11.2362 18.9478C10.8386 19.5918 10.8386 20.405 11.2361 21.049L16.1492 29.0086C16.5135 29.5988 17.1575 29.9581 17.851 29.9581L27.9162 29.9587C28.6097 29.9588 29.2537 29.5996 29.6181 29.0095L34.5322 21.0505ZM29.2968 19.9968C29.2968 18.2533 28.6789 16.7722 27.4433 15.5534C26.2245 14.3178 24.7434 13.6999 22.9999 13.6999C21.2564 13.6999 19.7668 14.3178 18.5312 15.5534L17.3886 14.4362C17.287 14.3347 17.1685 14.3093 17.0331 14.3601C16.9146 14.4109 16.8554 14.504 16.8554 14.6394V17.864C16.8554 17.9486 16.8808 18.0248 16.9315 18.0925C16.9993 18.1433 17.0754 18.1687 17.1601 18.1687H20.4354C20.5709 18.1687 20.664 18.1094 20.7147 17.9909C20.7655 17.8555 20.7401 17.737 20.6386 17.6355L19.3944 16.4167C20.3931 15.418 21.595 14.9187 22.9999 14.9187C24.4048 14.9187 25.5982 15.418 26.58 16.4167C27.5787 17.3985 28.078 18.5918 28.078 19.9968C28.078 21.4017 27.5787 22.6036 26.58 23.6023C25.5982 24.584 24.4048 25.0749 22.9999 25.0749C21.7134 25.0749 20.5878 24.6433 19.6229 23.78C19.4706 23.6615 19.3267 23.67 19.1913 23.8054L18.7597 24.237C18.6073 24.3894 18.6158 24.5332 18.7851 24.6687C19.9869 25.752 21.3918 26.2937 22.9999 26.2937C24.7434 26.2937 26.2245 25.6758 27.4433 24.4402C28.6789 23.2045 29.2968 21.7234 29.2968 19.9968ZM24.6249 22.3327C24.7942 22.4512 24.9381 22.4343 25.0565 22.2819L25.412 21.7741C25.5305 21.6218 25.5051 21.4864 25.3358 21.3679L23.6093 20.0984V16.4421C23.6093 16.239 23.5077 16.1374 23.3046 16.1374H22.6952C22.4921 16.1374 22.3905 16.239 22.3905 16.4421V20.7077L24.6249 22.3327Z" fill="white"/>
</g>
<defs>
<filter id="filter0_d_2297_14134" x="0.937988" y="0.0395508" width="43.8926" height="39.9192" filterUnits="userSpaceOnUse" color-interpolation-filters="sRGB">
<feFlood flood-opacity="0" result="BackgroundImageFix"/>
<feColorMatrix in="SourceAlpha" type="matrix" values="0 0 0 0 0 0 0 0 0 0 0 0 0 0 0 0 0 0 127 0" result="hardAlpha"/>
<feOffset/>
<feGaussianBlur stdDeviation="5"/>
<feComposite in2="hardAlpha" operator="out"/>
<feColorMatrix type="matrix" values="0 0 0 0 0 0 0 0 0 0 0 0 0 0 0 0 0 0 0.3 0"/>
<feBlend mode="normal" in2="BackgroundImageFix" result="effect1_dropShadow_2297_14134"/>
<feBlend mode="normal" in="SourceGraphic" in2="effect1_dropShadow_2297_14134" result="shape"/>
</filter>
</defs>
</svg>
