<svg width="46" height="46" viewBox="0 0 46 46" fill="none" xmlns="http://www.w3.org/2000/svg">
<g filter="url(#filter0_d_64_4421)">
<rect x="10" y="7" width="26" height="26" rx="13" fill="white" shape-rendering="crispEdges"/>
<path fill-rule="evenodd" clip-rule="evenodd" d="M24 14C24 13.4477 23.5523 13 23 13C22.4477 13 22 13.4477 22 14V19H17C16.4477 19 16 19.4477 16 20C16 20.5523 16.4477 21 17 21H22V26C22 26.5523 22.4477 27 23 27C23.5523 27 24 26.5523 24 26V21H29C29.5523 21 30 20.5523 30 20C30 19.4477 29.5523 19 29 19H24V14Z" fill="#8386A5"/>
</g>
<defs>
<filter id="filter0_d_64_4421" x="0" y="0" width="46" height="46" filterUnits="userSpaceOnUse" color-interpolation-filters="sRGB">
<feFlood flood-opacity="0" result="BackgroundImageFix"/>
<feColorMatrix in="SourceAlpha" type="matrix" values="0 0 0 0 0 0 0 0 0 0 0 0 0 0 0 0 0 0 127 0" result="hardAlpha"/>
<feOffset dy="3"/>
<feGaussianBlur stdDeviation="5"/>
<feComposite in2="hardAlpha" operator="out"/>
<feColorMatrix type="matrix" values="0 0 0 0 0 0 0 0 0 0 0 0 0 0 0 0 0 0 0.15 0"/>
<feBlend mode="normal" in2="BackgroundImageFix" result="effect1_dropShadow_64_4421"/>
<feBlend mode="normal" in="SourceGraphic" in2="effect1_dropShadow_64_4421" result="shape"/>
</filter>
</defs>
</svg>
